<svg xmlns="http://www.w3.org/2000/svg"
    width="150 cm" height="100 cm"
    viewBox="0 0 3000 2000">

    <rect id="Background"
        width="100%" height="100%" fill="#fe0000" />
    <path id="Dragon"
        fill="black"
        d="M 1522 568 C 1533.1 568 1534.1 565.4 1544 561.4 C 1550.2 558.9 1562.1 553.9 1567.4 550.3 C 1580.9 541.4 1591 528.2 1601.3 516 C 1601.3 516 1660.7 441 1660.7 441 C 1660.7 441 1680.3 408.2 1680.3 408.2 C 1691.7 390 1708.9 368.1 1724 353 C 1730.4 346.6 1742.6 335.8 1751 332.6 C 1755 331.1 1758.9 330.4 1763 329.5 C 1768.9 328.1 1769.3 327.3 1776 327 C 1780.4 326.8 1784.8 326.1 1789 328.1 C 1797.5 332 1800.6 343.5 1798.1 352 C 1794.7 363.2 1781.2 366.1 1772 370.5 C 1764.7 373.9 1747.4 385.9 1741 391.3 C 1735 396.2 1727 403.7 1722.6 410 C 1714.7 421.1 1710.1 434.1 1703.7 446 C 1697 458.4 1690 468.3 1690 483 C 1690 483 1690 504 1690 504 C 1696 501.2 1698.8 494.6 1706 494.1 C 1716.9 493.4 1728.3 503.8 1727.9 515 C 1727.8 520.6 1724.8 525.3 1722.2 530 C 1722.2 530 1715.3 543 1715.3 543 C 1707.8 555 1694.4 569 1685.1 580 C 1685.1 580 1648.3 621 1648.3 621 C 1648.3 621 1631 637.8 1631 637.8 C 1626 642.4 1620.7 646.5 1624.5 654 C 1633.2 671.6 1662.1 678.1 1680 680.3 C 1688.6 681.4 1698.4 681.6 1705.8 676.2 C 1717.9 667.3 1722.2 652.9 1730.2 646.8 C 1735.6 642.6 1744.9 643 1749.6 648.2 C 1754.6 653.8 1752.7 660.6 1751.2 667 C 1748.6 678 1742.4 689.3 1736.8 699 C 1734.6 703 1731.4 709.8 1728.7 713 C 1723.9 718.9 1713.3 724.8 1715.9 732 C 1717.9 737.3 1726.1 739.8 1731 741.5 C 1731 741.5 1746 747.6 1746 747.6 C 1746 747.6 1754 748.3 1754 748.3 C 1762.8 749.4 1773.6 752.3 1777.8 761 C 1780.3 766.2 1780 769.6 1778.6 775 C 1775 788.3 1764.3 794.8 1751 795 C 1746.9 795 1739.6 794.5 1736.6 797.7 C 1734 800.4 1735.9 804.3 1737.6 807 C 1741.1 812.8 1746.6 819 1752.1 823 C 1765.8 832.9 1781.2 834.9 1797 839.8 C 1806.7 842.7 1813.8 846.4 1812.8 858 C 1811.5 873.4 1797.8 877.6 1785 880.4 C 1785 880.4 1773 883.1 1773 883.1 C 1773 883.1 1764 883.1 1764 883.1 C 1756.5 884.2 1756.5 885 1748 885 C 1750.3 892.2 1754.5 895.6 1759.5 900.9 C 1768.5 910.5 1779.7 921.5 1792 926.5 C 1802.7 930.9 1822.4 934.8 1825.5 948 C 1827.9 958.5 1819.2 966.1 1810 968.7 C 1810 968.7 1765 974.1 1765 974.1 C 1760.2 975.2 1752.6 976.3 1750 981.1 C 1746.1 988.3 1758.3 998.6 1763 1002.7 C 1775 1013.2 1788.3 1022.6 1799 1034.5 C 1802.9 1038.9 1808.8 1045.6 1806.4 1052 C 1804.2 1058.1 1793.8 1062.4 1788 1064.7 C 1781.9 1067 1776.6 1068.9 1770 1069 C 1758.5 1069.1 1751.9 1067.3 1741 1064 C 1738.3 1063.1 1732 1060.7 1729.4 1062.8 C 1727.5 1064.6 1728.5 1067.8 1729.4 1070 C 1731.2 1076.1 1733.2 1080.4 1736.2 1086 C 1742.8 1098.2 1751.4 1109.2 1759.9 1120 C 1762.7 1123.6 1769 1131.2 1768.4 1136 C 1767.5 1142.5 1756.6 1147.1 1751 1148.7 C 1745.8 1150.2 1743.4 1150.1 1738 1150 C 1728.3 1149.9 1715.6 1144.7 1707 1140.2 C 1703.6 1138.5 1696.9 1133.6 1693.2 1135.8 C 1689.1 1138.2 1690 1145.9 1690 1150 C 1690.2 1161.5 1698.8 1170 1705 1179 C 1720.9 1202.1 1747.4 1232.1 1736.3 1262 C 1731.4 1275 1723.7 1279 1713 1286 C 1713 1286 1663 1314.5 1663 1314.5 C 1655.1 1318.7 1647.2 1322.8 1640 1328.1 C 1637.5 1330.1 1634 1332.6 1633.5 1336 C 1632.3 1344.2 1649 1350 1655 1352.7 C 1676.2 1362.3 1693.3 1375.4 1701.6 1398 C 1709.9 1420.4 1700 1445.3 1685.4 1462.7 C 1680.7 1468.3 1677.4 1471.5 1672.2 1476.6 C 1670.2 1478.5 1666.3 1482.3 1665.7 1485 C 1665.1 1488.2 1667.5 1489.7 1670 1490.8 C 1678.5 1494.4 1683.1 1493.6 1691 1501.1 C 1698.6 1508.3 1703.2 1518.4 1707.2 1528 C 1710.5 1535.8 1712.3 1542.8 1722 1543 C 1722 1543 1757 1543 1757 1543 C 1761.9 1543 1770.9 1543.7 1774.9 1546.6 C 1780 1550.2 1781.2 1556.4 1782.5 1562 C 1782.5 1562 1784.5 1570 1784.5 1570 C 1784.5 1570 1787 1598 1787 1598 C 1787.1 1608.8 1782.5 1626.6 1772 1631.8 C 1769.2 1633.2 1766 1633 1763 1633 C 1763 1633 1465 1633 1465 1633 C 1465 1633 1299 1633 1299 1633 C 1299 1633 1284 1632 1284 1632 C 1284 1632 1256 1632 1256 1632 C 1256 1632 1233 1631 1233 1631 C 1230.9 1631 1227.9 1631.1 1226 1630.4 C 1214.6 1626.2 1212.9 1607.3 1213 1597 C 1213 1597 1214.3 1578 1214.3 1578 C 1214.3 1578 1215.8 1569 1215.8 1569 C 1216.6 1561.3 1216.5 1553 1223.2 1547.6 C 1226.7 1544.7 1232.6 1544.6 1237 1544 C 1248.3 1542.5 1259.7 1543 1271 1543 C 1273.8 1543 1281.9 1544 1283.7 1543 C 1286.5 1541.3 1288.1 1533.2 1289 1530 C 1291.5 1521.6 1296.1 1507.9 1301.6 1501.3 C 1304.3 1498 1306.8 1495.3 1311 1493.8 C 1314 1492.8 1319.2 1492.8 1320.9 1489.6 C 1323.3 1485.4 1314.4 1474.9 1312.1 1471 C 1304.2 1457.6 1303.3 1451 1301.8 1436 C 1301.5 1432.5 1300.9 1430.9 1301.1 1427 C 1302.6 1400.5 1311 1375.3 1331.5 1357.3 C 1343.4 1346.8 1353.1 1345.3 1361 1339.4 C 1365.5 1336.1 1370.6 1328.7 1374.1 1324 C 1374.1 1324 1480.7 1176 1480.7 1176 C 1504.9 1142.5 1529.7 1109.3 1551.3 1074 C 1551.3 1074 1575.3 1030 1575.3 1030 C 1582.5 1013.2 1593.1 975.2 1595.7 957 C 1598.5 937.5 1598.2 917.7 1598 898 C 1598 898 1593.4 863 1593.4 863 C 1593.4 863 1589.8 837 1589.8 837 C 1589 833 1588.1 819.1 1585.3 816.7 C 1583.3 815.1 1582 817.4 1581.3 819.1 C 1580.1 822.5 1580 827.4 1580 831 C 1580 831 1580 841 1580 841 C 1580 841 1581.8 862 1581.8 862 C 1581.8 862 1582.5 878 1582.5 878 C 1583.1 888.4 1579.2 892.4 1569 892 C 1566.6 891.9 1564.5 891.8 1563 889.7 C 1562 888.3 1560.5 882 1559.8 880 C 1559.8 880 1553.4 863 1553.4 863 C 1549.2 852.3 1538.7 825.4 1532.8 817 C 1529.4 812.2 1525.2 808.1 1521 804 C 1515.7 798.8 1505.9 790.4 1498 790.4 C 1490.7 790.4 1482.9 797.2 1484.4 805 C 1485.3 809.4 1489.2 813 1491.4 817 C 1500.8 834.2 1491.5 852.2 1481 852.8 C 1475.2 853.2 1464.8 845.6 1460 842.3 C 1460 842.3 1423 815.3 1423 815.3 C 1418.2 812 1410.6 806.1 1405 805.4 C 1399.9 804.7 1392 808.4 1387 809.9 C 1387 809.9 1375 811.9 1375 811.9 C 1375 811.9 1362 813.3 1362 813.3 C 1354.2 814.4 1338.6 818.4 1331 820.9 C 1320.8 824.3 1320.7 827.8 1310 831.8 C 1300.3 835.4 1286.5 836.6 1276 838.9 C 1276 838.9 1237 847 1237 847 C 1224.6 847.1 1212.7 847.9 1202.7 839 C 1194.6 831.6 1191.7 822.4 1184.8 815.1 C 1179 809 1165.3 803.1 1167.6 793 C 1168.6 788.7 1172 785 1175 782 C 1180.6 776.3 1194.5 766.3 1202 763 C 1210 759.6 1218.7 758.6 1227 756.2 C 1240.3 752.5 1247.8 748.1 1262 748 C 1272 748 1277.7 745.5 1287 743.3 C 1287 743.3 1325 736.3 1325 736.3 C 1325 736.3 1361 730.3 1361 730.3 C 1364.4 729.5 1372.3 727.5 1374.3 724.5 C 1377.7 719.1 1365.1 716.4 1362 715.9 C 1354.4 714.6 1351.2 713.3 1343 714.2 C 1332.4 715.3 1329.7 719 1317 719 C 1317 719 1300 719 1300 719 C 1296.5 719 1293.2 719.2 1290.4 721.6 C 1286.2 725.3 1286.5 731.7 1280 736 C 1271.9 741.3 1254.5 741 1245 741 C 1231.5 741 1219.2 735.3 1212 735.1 C 1204.5 735 1196.2 741.9 1187 739 C 1179.9 736.8 1156.9 719.4 1143 718.4 C 1126.4 717.2 1122.5 743 1104.2 734.3 C 1093.8 729.4 1090.7 715 1094.8 705 C 1097.2 699.1 1104.2 691.8 1108.5 686.8 C 1117.7 676.2 1127.3 665.5 1134.1 653 C 1136.2 649.2 1137.7 646.2 1139 642 C 1141.8 632.4 1141 622.2 1155 623.1 C 1166.8 623.8 1182.2 634.5 1193 639.3 C 1200.3 642.5 1208.2 643.1 1216 643 C 1230.3 642.8 1241.8 638.1 1255 633.5 C 1282.2 624 1319.5 605.5 1341.5 587 C 1348.1 581.4 1358.8 570.6 1364.4 564 C 1368.6 559.1 1373.8 551.3 1379.3 548.1 C 1386.6 544 1392.1 547.7 1399 550.4 C 1406.3 553.2 1425.7 559.6 1433 559.9 C 1458.6 561 1484.3 536.3 1499.2 518 C 1504.1 512.1 1509.7 507.3 1512.7 500 C 1515.1 494.3 1516.9 480.3 1517 474 C 1517.1 466.6 1516.8 453.2 1521.8 447.3 C 1527 441.4 1542.3 442.5 1547.2 448.3 C 1551 453 1551.9 463 1552 469 C 1552 469 1551 490 1551 490 C 1550.9 501.3 1548.4 518.1 1542.8 528 C 1538.1 536.4 1525.1 551.8 1522.6 560 C 1521.9 562.6 1522 565.4 1522 568 Z" />
</svg>