<svg xmlns="http://www.w3.org/2000/svg"
    width="150 cm" height="100 cm"
    viewBox="0 0 3000 2000">

    <rect id="Background"
        width="100%" height="100%" fill="#fe0000" />
    <path id="D20"
        fill="none" stroke="black" stroke-width="10"
        d="M 1470 44.5 C 1482.7 42.5 1490.8 47.6 1491 61 C 1491 61 1491 118 1491 118 C 1491 118 1491 370 1491 370 C 1491 373 1491.1 376.1 1490.2 379 C 1486.2 390.7 1469.4 390.4 1459 391.7 C 1459 391.7 1356 405.3 1356 405.3 C 1356 405.3 1257 418.3 1257 418.3 C 1257 418.3 1013 450.7 1013 450.7 C 1013 450.7 908 464.6 908 464.6 C 908 464.6 787 480.6 787 480.6 C 775.5 482.2 756.7 487.7 752.3 472 C 752.1 470.2 752 467.9 752.3 466 C 752.7 457.4 758.3 454.3 765 450.4 C 765 450.4 792 434.9 792 434.9 C 792 434.9 920 361 920 361 C 920 361 1295 144.6 1295 144.6 C 1295 144.6 1411 77.6 1411 77.6 C 1411 77.6 1449 55.6 1449 55.6 C 1455 52.2 1463.8 46.5 1470 44.5 Z M 1520 44.6 C 1531.4 42.6 1535.7 46.8 1545 52.1 C 1545 52.1 1566 64.2 1566 64.2 C 1566 64.2 1669 123.7 1669 123.7 C 1669 123.7 2087 365 2087 365 C 2087 365 2208 434.9 2208 434.9 C 2208 434.9 2232 448.7 2232 448.7 C 2239 452.7 2245.3 456.1 2245.7 465 C 2246 466.9 2245.9 469.2 2245.7 471 C 2241.3 486.9 2221.6 481.4 2210 480.1 C 2210 480.1 2089 464.1 2089 464.1 C 2089 464.1 1970 448.3 1970 448.3 C 1970 448.3 1738 417.7 1738 417.7 C 1738 417.7 1644 405.1 1644 405.1 C 1644 405.1 1541 391.6 1541 391.6 C 1530.5 390.1 1513.9 390.9 1509.8 379 C 1508.9 376.1 1509 373 1509 370 C 1509 370 1509 123 1509 123 C 1509 123 1509 61 1509 61 C 1509.1 52.4 1511.6 47.5 1520 44.6 Z M 1446 411.2 C 1446 411.2 1450 411.2 1450 411.2 C 1452.6 410.9 1455.5 411 1458 411.9 C 1461.7 413.1 1464.5 415.6 1466.3 419 C 1472.3 430.7 1460.9 445.1 1455.3 455 C 1455.3 455 1376.2 592 1376.2 592 C 1376.2 592 1056.8 1145 1056.8 1145 C 1056.8 1145 965 1304 965 1304 C 965 1304 946 1337 946 1337 C 941.2 1345.3 938.1 1351.7 927 1350.9 C 916.3 1350.1 913.7 1342.7 911 1334 C 911 1334 902.7 1307 902.7 1307 C 902.7 1307 858 1162 858 1162 C 858 1162 726 732 726 732 C 726 732 683.3 593 683.3 593 C 683.3 593 671 553 671 553 C 669.2 547.4 665.3 536.4 665 531 C 664.3 514.1 675 513.4 688 511.7 C 688 511.7 706 509.3 706 509.3 C 706 509.3 846 490.7 846 490.7 C 846 490.7 998 470.7 998 470.7 C 998 470.7 1333 426.3 1333 426.3 C 1333 426.3 1446 411.2 1446 411.2 Z M 1543 411.6 C 1551 410.2 1557.2 411.9 1565 412.9 C 1565 412.9 1603 417.9 1603 417.9 C 1603 417.9 1738 435.7 1738 435.7 C 1738 435.7 2154 490.7 2154 490.7 C 2154 490.7 2294 509.3 2294 509.3 C 2294 509.3 2313 511.7 2313 511.7 C 2325.9 513.6 2335.7 514.8 2335 531 C 2334.7 536.4 2330.8 547.4 2329 553 C 2329 553 2316.7 593 2316.7 593 C 2316.7 593 2274 732 2274 732 C 2274 732 2183 1028 2183 1028 C 2183 1028 2141.3 1164 2141.3 1164 C 2141.3 1164 2123 1224 2123 1224 C 2123 1224 2096.7 1309 2096.7 1309 C 2096.7 1309 2089.3 1333 2089.3 1333 C 2088 1337.2 2087.3 1341.4 2084.4 1344.9 C 2080.8 1349.5 2075.7 1351.3 2070 1350.9 C 2061.2 1350.3 2058.5 1344.8 2054.6 1338 C 2054.6 1338 2037.8 1309 2037.8 1309 C 2037.8 1309 1961 1176 1961 1176 C 1961 1176 1893.6 1059 1893.6 1059 C 1893.6 1059 1725.4 768 1725.4 768 C 1725.4 768 1641.2 622 1641.2 622 C 1641.2 622 1602.6 555 1602.6 555 C 1602.6 555 1551.2 466 1551.2 466 C 1547.5 459.5 1533.8 437.5 1532.5 432 C 1530.3 422.6 1533.7 414.8 1543 411.6 Z M 1495 431.6 C 1510.9 428.8 1513.8 437.3 1520.8 449 C 1520.8 449 1536.4 476 1536.4 476 C 1536.4 476 1589.6 568 1589.6 568 C 1589.6 568 1627.6 634 1627.6 634 C 1627.6 634 1671.4 710 1671.4 710 C 1671.4 710 1768.4 878 1768.4 878 C 1768.4 878 1880.4 1072 1880.4 1072 C 1880.4 1072 1956.7 1204 1956.7 1204 C 1956.7 1204 2037 1343 2037 1343 C 2040.2 1348.4 2049.8 1363.8 2050.7 1369 C 2052.1 1377.1 2049.3 1385.3 2041 1388.2 C 2038.1 1389.1 2035 1389 2032 1389 C 2032 1389 1500 1389 1500 1389 C 1500 1389 968 1389 968 1389 C 965 1389 961.9 1389.1 959 1388.2 C 950.8 1385.3 947.8 1377 949.3 1369 C 950.1 1364.9 953.5 1359.7 955.6 1356 C 955.6 1356 967.7 1335 967.7 1335 C 967.7 1335 1022.6 1240 1022.6 1240 C 1022.6 1240 1060.6 1174 1060.6 1174 C 1060.6 1174 1186.4 956 1186.4 956 C 1186.4 956 1378.2 624 1378.2 624 C 1378.2 624 1460.2 482 1460.2 482 C 1460.2 482 1480.4 447 1480.4 447 C 1484.8 439.6 1486.2 434.6 1495 431.6 Z M 668 657.6 C 683.3 654.9 685.8 663 689.7 675 C 689.7 675 695.3 693 695.3 693 C 695.3 693 733.7 818 733.7 818 C 733.7 818 787 992 787 992 C 787 992 861.7 1235 861.7 1235 C 861.7 1235 894.3 1341 894.3 1341 C 894.3 1341 901.3 1364 901.3 1364 C 903.7 1371.3 906.8 1380.3 904.1 1388 C 901.5 1395.8 895 1397.3 888 1399.7 C 888 1399.7 852 1412 852 1412 C 852 1412 730 1454.3 730 1454.3 C 730 1454.3 703 1463.6 703 1463.6 C 703 1463.6 690 1468 690 1468 C 679.3 1471.5 662.9 1477 657.9 1462 C 656.9 1459.1 657 1456 657 1453 C 657 1453 657 847 657 847 C 657 847 657 704 657 704 C 657 704 657 680 657 680 C 657 675.7 656.6 669.9 658.2 666 C 660.3 661.2 663.3 659.2 668 657.6 Z M 2323 657.6 C 2335.3 655.4 2342.8 661.4 2343 674 C 2343 674 2343 805 2343 805 C 2343 805 2343 1299 2343 1299 C 2343 1299 2343 1432 2343 1432 C 2343 1432 2343 1453 2343 1453 C 2343 1465.5 2338.5 1472.5 2325 1472 C 2318.9 1471.7 2306.1 1466.7 2300 1464.4 C 2300 1464.4 2268 1453.3 2268 1453.3 C 2268 1453.3 2150 1412.7 2150 1412.7 C 2150 1412.7 2113 1400 2113 1400 C 2106.2 1397.7 2099.3 1396.3 2096.2 1389 C 2092.2 1379.4 2099.2 1361.7 2102.3 1352 C 2102.3 1352 2127.6 1270 2127.6 1270 C 2127.6 1270 2170 1132 2170 1132 C 2170 1132 2233 927 2233 927 C 2233 927 2295.7 723 2295.7 723 C 2295.7 723 2310 676 2310 676 C 2312.9 667.1 2312.9 661.1 2323 657.6 Z M 976 1407.6 C 976 1407.6 1006 1407 1006 1407 C 1006 1407 1063 1407 1063 1407 C 1063 1407 1240 1407 1240 1407 C 1240 1407 1789 1407 1789 1407 C 1789 1407 1979 1407 1979 1407 C 1979 1407 2018 1407 2018 1407 C 2028.6 1407.1 2035.7 1412.8 2034.9 1424 C 2034.4 1431.2 2029.8 1435.2 2025 1440 C 2025 1440 2005 1460 2005 1460 C 2005 1460 1980 1485 1980 1485 C 1980 1485 1971 1495 1971 1495 C 1971 1495 1917 1549 1917 1549 C 1917 1549 1892 1575 1892 1575 C 1892 1575 1826 1641 1826 1641 C 1826 1641 1813 1655 1813 1655 C 1813 1655 1747 1721 1747 1721 C 1747 1721 1737 1732 1737 1732 C 1737 1732 1671 1798 1671 1798 C 1671 1798 1660 1810 1660 1810 C 1660 1810 1616 1854 1616 1854 C 1616 1854 1591 1879 1591 1879 C 1591 1879 1582 1889 1582 1889 C 1582 1889 1537 1934 1537 1934 C 1537 1934 1518 1953 1518 1953 C 1513.9 1957 1509.9 1961.5 1504 1962.7 C 1492.7 1964.8 1487.3 1958.3 1480 1951 C 1480 1951 1469 1940 1469 1940 C 1469 1940 1418 1889 1418 1889 C 1418 1889 1392 1862 1392 1862 C 1392 1862 1341 1811 1341 1811 C 1341 1811 1330 1799 1330 1799 C 1330 1799 1263 1732 1263 1732 C 1263 1732 1253 1721 1253 1721 C 1253 1721 1187 1655 1187 1655 C 1187 1655 1174 1641 1174 1641 C 1174 1641 1108 1575 1108 1575 C 1108 1575 1098 1564 1098 1564 C 1098 1564 1069 1535 1069 1535 C 1069 1535 980 1445 980 1445 C 973.1 1438.1 964.3 1431.8 965.1 1421 C 965.4 1416.9 967 1413.3 970.2 1410.6 C 972.2 1408.8 973.6 1408.4 976 1407.6 Z M 910 1411.7 C 913.5 1411 916.6 1410.7 920 1411.7 C 927.3 1414.3 941.5 1430.8 947.2 1437 C 947.2 1437 967 1457 967 1457 C 967 1457 1025.2 1516 1025.2 1516 C 1025.2 1516 1045 1536 1045 1536 C 1045 1536 1096 1587 1096 1587 C 1096 1587 1104 1596 1104 1596 C 1104 1596 1173 1665 1173 1665 C 1173 1665 1183 1676 1183 1676 C 1183 1676 1250 1743 1250 1743 C 1250 1743 1260 1754 1260 1754 C 1260 1754 1295 1789 1295 1789 C 1295 1789 1330 1824 1330 1824 C 1330 1824 1348 1843 1348 1843 C 1354.4 1849.4 1366.2 1858.7 1366.9 1868 C 1367.7 1878.5 1360.5 1885.6 1350 1884.9 C 1344 1884.5 1338.2 1880.4 1333 1877.4 C 1333 1877.4 1305 1861.3 1305 1861.3 C 1305 1861.3 1199 1800 1199 1800 C 1199 1800 1127 1758.6 1127 1758.6 C 1127 1758.6 933 1646.4 933 1646.4 C 933 1646.4 838 1591.6 838 1591.6 C 838 1591.6 725 1526.4 725 1526.4 C 725 1526.4 711 1518.3 711 1518.3 C 700.6 1512.3 690.6 1508.4 693.3 1494 C 694.9 1486 700.2 1483.8 707 1481.2 C 707 1481.2 745 1468 745 1468 C 745 1468 851 1431.7 851 1431.7 C 851 1431.7 881 1421.3 881 1421.3 C 881 1421.3 910 1411.7 910 1411.7 Z M 2081 1411.6 C 2089.3 1410.1 2094.3 1412.8 2102 1415.3 C 2102 1415.3 2135 1426.7 2135 1426.7 C 2135 1426.7 2210 1452.7 2210 1452.7 C 2210 1452.7 2264 1471 2264 1471 C 2271.2 1473.7 2296.5 1481.6 2300.9 1484.8 C 2307.7 1489.9 2309 1501.1 2304.2 1507.9 C 2301.3 1511.9 2295.3 1514.7 2291 1517.2 C 2291 1517.2 2263 1533.4 2263 1533.4 C 2263 1533.4 2159 1593.4 2159 1593.4 C 2159 1593.4 1951 1713.6 1951 1713.6 C 1951 1713.6 1804 1798.4 1804 1798.4 C 1804 1798.4 1674 1873.4 1674 1873.4 C 1664.7 1878.8 1652.1 1889 1641 1883.3 C 1637.5 1881.5 1635.1 1878.7 1633.8 1875 C 1633.1 1872.9 1632.9 1870.3 1633.1 1868 C 1633.6 1860.8 1638.2 1856.8 1643 1852 C 1643 1852 1660 1835 1660 1835 C 1660 1835 1672 1822 1672 1822 C 1672 1822 1736 1758 1736 1758 C 1736 1758 1750 1743 1750 1743 C 1750 1743 1816 1677 1816 1677 C 1816 1677 1829 1663 1829 1663 C 1829 1663 1895 1597 1895 1597 C 1895 1597 1905 1586 1905 1586 C 1905 1586 1974.9 1516 1974.9 1516 C 1974.9 1516 2048 1442 2048 1442 C 2056.3 1433.6 2070.5 1415.2 2081 1411.6 Z" />
    <path id="Dragon"
        fill="black"
        d="M 1522 568 C 1533.1 568 1534.1 565.4 1544 561.4 C 1550.2 558.9 1562.1 553.9 1567.4 550.3 C 1580.9 541.4 1591 528.2 1601.3 516 C 1601.3 516 1660.7 441 1660.7 441 C 1660.7 441 1680.3 408.2 1680.3 408.2 C 1691.7 390 1708.9 368.1 1724 353 C 1730.4 346.6 1742.6 335.8 1751 332.6 C 1755 331.1 1758.9 330.4 1763 329.5 C 1768.9 328.1 1769.3 327.3 1776 327 C 1780.4 326.8 1784.8 326.1 1789 328.1 C 1797.5 332 1800.6 343.5 1798.1 352 C 1794.7 363.2 1781.2 366.1 1772 370.5 C 1764.7 373.9 1747.4 385.9 1741 391.3 C 1735 396.2 1727 403.7 1722.6 410 C 1714.7 421.1 1710.1 434.1 1703.7 446 C 1697 458.4 1690 468.3 1690 483 C 1690 483 1690 504 1690 504 C 1696 501.2 1698.8 494.6 1706 494.1 C 1716.9 493.4 1728.3 503.8 1727.9 515 C 1727.8 520.6 1724.8 525.3 1722.2 530 C 1722.2 530 1715.3 543 1715.3 543 C 1707.8 555 1694.4 569 1685.1 580 C 1685.1 580 1648.3 621 1648.3 621 C 1648.3 621 1631 637.8 1631 637.8 C 1626 642.4 1620.7 646.5 1624.5 654 C 1633.2 671.6 1662.1 678.1 1680 680.3 C 1688.6 681.4 1698.4 681.6 1705.8 676.2 C 1717.9 667.3 1722.2 652.9 1730.2 646.8 C 1735.6 642.6 1744.9 643 1749.6 648.2 C 1754.6 653.8 1752.7 660.6 1751.2 667 C 1748.6 678 1742.4 689.3 1736.8 699 C 1734.6 703 1731.4 709.8 1728.7 713 C 1723.9 718.9 1713.3 724.8 1715.9 732 C 1717.9 737.3 1726.1 739.8 1731 741.5 C 1731 741.5 1746 747.6 1746 747.6 C 1746 747.6 1754 748.3 1754 748.3 C 1762.8 749.4 1773.6 752.3 1777.8 761 C 1780.3 766.2 1780 769.6 1778.6 775 C 1775 788.3 1764.3 794.8 1751 795 C 1746.9 795 1739.6 794.5 1736.6 797.7 C 1734 800.4 1735.9 804.3 1737.6 807 C 1741.1 812.8 1746.6 819 1752.1 823 C 1765.8 832.9 1781.2 834.9 1797 839.8 C 1806.7 842.7 1813.8 846.4 1812.8 858 C 1811.5 873.4 1797.8 877.6 1785 880.4 C 1785 880.4 1773 883.1 1773 883.1 C 1773 883.1 1764 883.1 1764 883.1 C 1756.5 884.2 1756.5 885 1748 885 C 1750.3 892.2 1754.5 895.6 1759.5 900.9 C 1768.5 910.5 1779.7 921.5 1792 926.5 C 1802.7 930.9 1822.4 934.8 1825.5 948 C 1827.9 958.5 1819.2 966.1 1810 968.7 C 1810 968.7 1765 974.1 1765 974.1 C 1760.2 975.2 1752.6 976.3 1750 981.1 C 1746.1 988.3 1758.3 998.6 1763 1002.7 C 1775 1013.2 1788.3 1022.6 1799 1034.5 C 1802.9 1038.9 1808.8 1045.6 1806.4 1052 C 1804.2 1058.1 1793.8 1062.4 1788 1064.7 C 1781.9 1067 1776.6 1068.9 1770 1069 C 1758.5 1069.1 1751.9 1067.3 1741 1064 C 1738.3 1063.1 1732 1060.7 1729.4 1062.8 C 1727.5 1064.6 1728.5 1067.8 1729.4 1070 C 1731.2 1076.1 1733.2 1080.4 1736.2 1086 C 1742.8 1098.2 1751.4 1109.2 1759.9 1120 C 1762.7 1123.6 1769 1131.2 1768.4 1136 C 1767.5 1142.5 1756.6 1147.1 1751 1148.7 C 1745.8 1150.2 1743.4 1150.1 1738 1150 C 1728.3 1149.9 1715.6 1144.7 1707 1140.2 C 1703.6 1138.5 1696.9 1133.6 1693.2 1135.8 C 1689.1 1138.2 1690 1145.9 1690 1150 C 1690.2 1161.5 1698.8 1170 1705 1179 C 1720.9 1202.1 1747.4 1232.1 1736.3 1262 C 1731.4 1275 1723.7 1279 1713 1286 C 1713 1286 1663 1314.5 1663 1314.5 C 1655.1 1318.7 1647.2 1322.8 1640 1328.1 C 1637.5 1330.1 1634 1332.6 1633.5 1336 C 1632.3 1344.2 1649 1350 1655 1352.7 C 1676.2 1362.3 1693.3 1375.4 1701.6 1398 C 1709.9 1420.4 1700 1445.3 1685.4 1462.7 C 1680.7 1468.3 1677.4 1471.5 1672.2 1476.6 C 1670.2 1478.5 1666.3 1482.3 1665.7 1485 C 1665.1 1488.2 1667.5 1489.7 1670 1490.8 C 1678.5 1494.4 1683.1 1493.6 1691 1501.1 C 1698.6 1508.3 1703.2 1518.4 1707.2 1528 C 1710.5 1535.8 1712.3 1542.8 1722 1543 C 1722 1543 1757 1543 1757 1543 C 1761.9 1543 1770.9 1543.7 1774.9 1546.6 C 1780 1550.2 1781.2 1556.4 1782.5 1562 C 1782.5 1562 1784.5 1570 1784.5 1570 C 1784.5 1570 1787 1598 1787 1598 C 1787.1 1608.8 1782.5 1626.6 1772 1631.8 C 1769.2 1633.2 1766 1633 1763 1633 C 1763 1633 1465 1633 1465 1633 C 1465 1633 1299 1633 1299 1633 C 1299 1633 1284 1632 1284 1632 C 1284 1632 1256 1632 1256 1632 C 1256 1632 1233 1631 1233 1631 C 1230.9 1631 1227.9 1631.1 1226 1630.4 C 1214.6 1626.2 1212.9 1607.3 1213 1597 C 1213 1597 1214.3 1578 1214.3 1578 C 1214.3 1578 1215.8 1569 1215.8 1569 C 1216.6 1561.3 1216.5 1553 1223.2 1547.6 C 1226.7 1544.7 1232.6 1544.6 1237 1544 C 1248.3 1542.5 1259.7 1543 1271 1543 C 1273.8 1543 1281.9 1544 1283.7 1543 C 1286.5 1541.3 1288.1 1533.2 1289 1530 C 1291.5 1521.6 1296.1 1507.9 1301.6 1501.3 C 1304.3 1498 1306.8 1495.3 1311 1493.8 C 1314 1492.8 1319.2 1492.8 1320.9 1489.6 C 1323.3 1485.4 1314.4 1474.9 1312.1 1471 C 1304.2 1457.6 1303.3 1451 1301.8 1436 C 1301.5 1432.5 1300.9 1430.9 1301.1 1427 C 1302.6 1400.5 1311 1375.3 1331.5 1357.3 C 1343.4 1346.8 1353.1 1345.3 1361 1339.4 C 1365.5 1336.1 1370.6 1328.7 1374.1 1324 C 1374.1 1324 1480.7 1176 1480.7 1176 C 1504.9 1142.5 1529.7 1109.3 1551.3 1074 C 1551.3 1074 1575.3 1030 1575.3 1030 C 1582.5 1013.2 1593.1 975.2 1595.7 957 C 1598.5 937.5 1598.2 917.7 1598 898 C 1598 898 1593.4 863 1593.4 863 C 1593.4 863 1589.8 837 1589.8 837 C 1589 833 1588.1 819.1 1585.3 816.7 C 1583.3 815.1 1582 817.4 1581.3 819.1 C 1580.1 822.5 1580 827.4 1580 831 C 1580 831 1580 841 1580 841 C 1580 841 1581.8 862 1581.8 862 C 1581.8 862 1582.5 878 1582.5 878 C 1583.1 888.4 1579.2 892.4 1569 892 C 1566.6 891.9 1564.5 891.8 1563 889.7 C 1562 888.3 1560.5 882 1559.8 880 C 1559.8 880 1553.4 863 1553.4 863 C 1549.2 852.3 1538.7 825.4 1532.8 817 C 1529.4 812.2 1525.2 808.1 1521 804 C 1515.7 798.8 1505.9 790.4 1498 790.4 C 1490.7 790.4 1482.9 797.2 1484.4 805 C 1485.3 809.4 1489.2 813 1491.4 817 C 1500.8 834.2 1491.5 852.2 1481 852.8 C 1475.2 853.2 1464.8 845.6 1460 842.3 C 1460 842.3 1423 815.3 1423 815.3 C 1418.2 812 1410.6 806.1 1405 805.4 C 1399.9 804.7 1392 808.4 1387 809.9 C 1387 809.9 1375 811.9 1375 811.9 C 1375 811.9 1362 813.3 1362 813.3 C 1354.2 814.4 1338.6 818.4 1331 820.9 C 1320.8 824.3 1320.7 827.8 1310 831.8 C 1300.3 835.4 1286.5 836.6 1276 838.9 C 1276 838.9 1237 847 1237 847 C 1224.6 847.1 1212.7 847.9 1202.7 839 C 1194.6 831.6 1191.7 822.4 1184.8 815.1 C 1179 809 1165.3 803.1 1167.6 793 C 1168.6 788.7 1172 785 1175 782 C 1180.6 776.3 1194.5 766.3 1202 763 C 1210 759.6 1218.7 758.6 1227 756.2 C 1240.3 752.5 1247.8 748.1 1262 748 C 1272 748 1277.7 745.5 1287 743.3 C 1287 743.3 1325 736.3 1325 736.3 C 1325 736.3 1361 730.3 1361 730.3 C 1364.4 729.5 1372.3 727.5 1374.3 724.5 C 1377.7 719.1 1365.1 716.4 1362 715.9 C 1354.4 714.6 1351.2 713.3 1343 714.2 C 1332.4 715.3 1329.7 719 1317 719 C 1317 719 1300 719 1300 719 C 1296.5 719 1293.2 719.2 1290.4 721.6 C 1286.2 725.3 1286.5 731.7 1280 736 C 1271.9 741.3 1254.5 741 1245 741 C 1231.5 741 1219.2 735.3 1212 735.1 C 1204.5 735 1196.2 741.9 1187 739 C 1179.9 736.8 1156.9 719.4 1143 718.4 C 1126.4 717.2 1122.5 743 1104.2 734.3 C 1093.8 729.4 1090.7 715 1094.8 705 C 1097.2 699.1 1104.2 691.8 1108.5 686.8 C 1117.7 676.2 1127.3 665.5 1134.1 653 C 1136.2 649.2 1137.7 646.2 1139 642 C 1141.8 632.4 1141 622.2 1155 623.1 C 1166.8 623.8 1182.2 634.5 1193 639.3 C 1200.3 642.5 1208.2 643.1 1216 643 C 1230.3 642.8 1241.8 638.1 1255 633.5 C 1282.2 624 1319.5 605.5 1341.5 587 C 1348.1 581.4 1358.8 570.6 1364.4 564 C 1368.6 559.1 1373.8 551.3 1379.3 548.1 C 1386.6 544 1392.1 547.7 1399 550.4 C 1406.3 553.2 1425.7 559.6 1433 559.9 C 1458.6 561 1484.3 536.3 1499.2 518 C 1504.1 512.1 1509.7 507.3 1512.7 500 C 1515.1 494.3 1516.9 480.3 1517 474 C 1517.1 466.6 1516.8 453.2 1521.8 447.3 C 1527 441.4 1542.3 442.5 1547.2 448.3 C 1551 453 1551.9 463 1552 469 C 1552 469 1551 490 1551 490 C 1550.9 501.3 1548.4 518.1 1542.8 528 C 1538.1 536.4 1525.1 551.8 1522.6 560 C 1521.9 562.6 1522 565.4 1522 568 Z" />
</svg>