<svg xmlns="http://www.w3.org/2000/svg"
    width="150 cm" height="100 cm"
    viewBox="0 0 3000 2000">

    <defs>
        <path id="dragon"
            d="m 115.975,1145.6675 c -9.70541,-7.1444 -12.11919,-20.0045 -8.61874,-45.9189 0.5064,-3.7489 1.1366,-8.9364 1.40046,-11.5277 0.69209,-6.797 3.43076,-11.6457 7.57416,-13.4096 5.36596,-2.2844 37.25038,-3.4456 45.82866,-1.6691 3.18794,0.6602 3.18794,0.6602 4.9521,-5.1348 6.83259,-22.4441 7.99144,-25.1076 14.06495,-32.3274 2.62605,-3.1217 3.68008,-3.6802 8.78935,-4.6579 5.61347,-1.074 7.31607,-1.8763 6.91146,-3.2565 -0.74185,-2.5305 -2.52097,-5.574 -6.6034,-11.2964 -23.78442,-33.33921 -8.47963,-91.32998 28.34725,-107.40945 8.43132,-3.68131 11.1587,-5.4755 14.36401,-9.44909 8.30244,-10.29259 92.70647,-127.4195 134.46654,-186.59836 11.96836,-16.96056 28.70721,-44.80392 36.79217,-61.2 4.70244,-9.5364 12.54123,-33.8233 16.03462,-49.68 3.77945,-17.15516 5.09682,-30.04565 5.07713,-49.68 -0.017,-16.87431 -0.0405,-17.17181 -3.09586,-39.12 -1.04742,-7.524 -2.5652,-18.432 -3.37285,-24.24 -2.53548,-18.23325 -2.93728,-19.76253 -5.2532,-19.99418 -3.07029,-0.30711 -3.28075,18.5787 -0.54108,48.55418 1.05822,11.57832 -1.4743,15.3864 -10.30938,15.50188 -5.61576,0.0734 -6.74651,-0.52137 -7.43334,-3.91017 -1.35811,-6.7008 -6.99599,-21.68914 -15.1031,-40.15171 -2.55036,-5.808 -5.19481,-11.856 -5.87655,-13.44 -3.81808,-8.87113 -20.48077,-24.58341 -28.05178,-26.45174 -12.64529,-3.12054 -20.32667,10.02114 -10.76466,18.4167 1.07728,0.94587 1.87715,2.21958 2.23219,3.55456 0.30432,1.14426 1.01955,2.83648 1.5894,3.76048 4.05448,6.57427 -0.22928,21.3227 -7.12391,24.52665 -6.33513,2.94399 -8.42639,1.79928 -42.72,-23.3843 -21.79761,-16.00712 -23.77857,-16.96048 -29.89447,-14.38713 -6.8736,2.89217 -12.14779,4.03562 -25.54554,5.53832 -9.29574,1.04263 -13.93504,1.91202 -18.10309,3.39248 -1.5273,0.54249 -5.17568,1.49873 -8.10751,2.125 -5.86803,1.25346 -8.2462,2.28625 -11.88175,5.15999 -5.28757,4.17959 -12.8163,6.95875 -22.50057,8.30596 -10.79305,1.50139 -14.74562,2.27439 -27.00708,5.28159 -17.94884,4.40208 -19.87821,4.71052 -27.84,4.45022 -14.08943,-0.46061 -22.11509,-5.21165 -29.280008,-17.3332 -4.84648,-8.19923 -6.91793,-10.56639 -12.73944,-14.55805 -13.59479,-9.32157 -11.82899,-16.81394 7.21944,-30.63254 10.92629,-7.92644 13.684078,-9.11327 30.000008,-12.91079 5.016,-1.16747 10.956,-2.81966 13.2,-3.67153 9.02853,-3.4274 8.87051,-3.39418 19.42343,-4.08431 7.2435,-0.47371 11.04604,-0.94217 13.45657,-1.65779 11.41052,-3.3875 24.61581,-6.02841 38.4,-7.67959 45.25244,-5.42067 56.16498,-13.04028 25.44,-17.7633 -7.57146,-1.16388 -8.66822,-1.03904 -21.36,2.43128 -6.2043,1.69646 -9.8095,1.91129 -20.64,1.22992 -10.10549,-0.63575 -11.9586,0.29369 -14.633,7.33922 -2.54589,6.70698 -4.75993,8.03369 -17.047,10.21493 -11.68217,2.07387 -22.92366,1.32798 -35.99634,-2.38842 -8.71283,-2.47694 -9.7238,-2.4843 -16.32366,-0.11886 -9.978168,3.57624 -12.373858,3.29714 -20.901628,-2.43497 -9.87267,-6.63612 -24.93319,-13.39078 -29.85673,-13.39078 -4.12662,0 -11.16166,3.74808 -11.16166,5.94663 0,0.61206 -2.91705,3.65337 -3.5041,3.65337 -0.18612,0 -1.09564,0.83817 -2.02116,1.86261 -6.20092,6.86368 -18.77795,3.56597 -22.24666,-5.83309 -3.8625097,-10.46611 -2.0999697,-17.48764 6.79105,-27.05391 18.99341,-20.43591 28.50077,-34.6049 30.16069,-44.94899 2.78906,-17.38055 11.6781,-17.66423 40.50019,-1.29249 12.187718,6.92296 28.395018,6.75562 48.960008,-0.5055 47.32692,-16.71027 80.30003,-37.60421 99.69527,-63.17353 9.7286,-12.8255 13.32015,-14.19347 24.15111,-9.19881 2.64351,1.21905 7.93551,3.11065 11.76001,4.20358 3.82449,1.09291 8.82423,2.62455 11.11054,3.40362 16.1279,5.49571 41.22292,-7.23108 59.65598,-30.25418 2.44216,-3.05029 6.18407,-7.4282 8.31535,-9.7287 6.45671,-6.96933 7.88556,-12.16478 8.74577,-31.80061 0.90328,-20.61868 3.34002,-24.37967 15.32519,-23.65362 14.35346,0.86951 16.46241,8.74728 12.75731,47.65362 -1.41098,14.8164 -3.35611,20.16275 -11.08934,30.48 -16.89228,22.53675 -16.91934,30.65765 -0.0747,22.40223 2.9741,-1.45758 8.21547,-3.76157 11.64747,-5.11998 19.06566,-7.54632 23.72437,-12.10428 64.05066,-62.66563 26.43516,-33.14456 28.88009,-36.48026 34.34099,-46.85245 5.64677,-10.72521 17.30616,-28.57381 23.93736,-36.64416 20.51343,-24.965208 28.3693,-32.555549 41.86527,-40.450061 3.76814,-2.204203 21.32879,-5.860128 28.18169,-5.867112 9.7945,-0.01 16.4874,11.788767 12.8639,22.677485 -1.477,4.438315 -8.3789,9.463127 -17.5624,12.786138 -5.1803,1.87443 -5.9753,2.29058 -12.45572,6.51987 -2.91595,1.90303 -6.51806,4.23577 -8.00467,5.18386 -8.80392,5.61481 -21.82613,17.79066 -25.7028,24.03236 -3.32554,5.35432 -8.74157,15.86654 -10.18661,19.77176 -0.58325,1.57613 -3.30739,6.86561 -6.05371,11.75442 -9.09764,16.1951 -9.28426,16.82953 -9.80981,33.35127 -0.44376,13.94923 -0.49728,13.784 3.08241,9.51567 6.70412,-7.99384 10.69522,-8.75805 19.49372,-3.73266 2.6243,1.4989 5.1731,3.29491 5.66404,3.99113 4.29874,6.0965 4.91405,12.71454 1.66085,17.86257 -1.09713,1.7362 -3.44582,6.0562 -5.21928,9.6 -4.69733,9.38658 -6.04454,11.24739 -19.43453,26.84329 -28.01019,32.62473 -46.17983,52.22901 -54.80724,59.13473 -8.23071,6.58817 -8.24817,10.12327 -0.0929,18.81541 5.94118,6.33233 10.97889,8.7019 27.23423,12.81009 27.89602,7.05013 35.82931,4.29044 49.06915,-17.0693 5.55528,-8.96224 8.42948,-10.85018 15.53703,-10.20569 14.5008,1.31488 13.3343,17.4151 -3.34685,46.19476 -1.53019,2.64 -3.58229,6.42 -4.56014,8.4 -1.51724,3.072 -2.30285,4.01468 -5.35666,6.42744 -11.30266,8.93 -10.58938,14.51125 2.40398,18.81076 2.95244,0.97697 7.20826,2.73161 9.4574,3.8992 4.05792,2.10661 4.14264,2.12656 11.04,2.60094 18.19411,1.25131 26.37961,10.94901 21.11601,25.01707 -3.9773,10.63041 -11.9013,14.74795 -28.40606,14.76065 -8.1948,0.006 -9.37963,3.27781 -3.93811,10.87349 8.88581,12.40352 17.02291,17.19773 38.22697,22.52261 20.2868,5.09452 22.7314,6.82862 23.2926,16.52208 0.7725,13.34472 -11.0888,20.40422 -38.3007,22.79534 -9.74465,0.85627 -15.84003,1.66901 -15.84003,2.11205 0,1.71096 8.50388,11.48409 16.74633,19.24584 10.8122,10.18176 15.5867,13.15392 26.2551,16.34424 18.7194,5.59785 25.6753,13.98115 20.4343,24.62721 -3.6288,7.37112 -9.8193,9.69917 -28.8757,10.85928 -39.96065,2.43264 -43.20804,8.39458 -16.4224,30.15005 39.3639,31.9716 40.7127,38.45775 10.1824,48.96533 -10.2989,3.54456 -15.182,3.15854 -35.47015,-2.80387 -8.95748,-2.63247 -9.63792,-2.49437 -8.91567,1.80931 1.74653,10.40707 12.20467,28.12646 27.21106,46.1041 8.76596,10.50172 8.34496,15.28166 -1.78526,20.26512 -12.94042,6.3659 -26.24842,4.81742 -44.40001,-5.16624 -11.25254,-6.18912 -12.68736,-5.60328 -12.68232,5.178 0.005,9.93772 0.67253,11.67988 8.50613,22.18747 9.85719,13.22193 23.37293,33.55925 26.72439,40.21253 8.5487,16.97088 7.02422,33.96201 -4.0682,45.34152 -4.84478,4.97016 -29.82288,19.87636 -57.48657,34.30632 -27.34846,14.26545 -27.90093,19.22467 -3.23682,29.05444 25.77527,10.27263 43.24093,33.27802 41.58824,54.77914 -1.27478,16.58429 -9.4163,32.06488 -23.83387,45.31858 -12.48693,11.4789 -12.5613,12.9982 -0.79046,16.1483 12.175,3.2583 18.22003,9.8155 26.45496,28.6969 6.606,15.1464 3.81969,13.6792 24.26452,12.7775 14.20244,-0.6264 28.88483,0.7501 32.37183,3.0348 4.5354,2.9717 8.0388,15.3628 8.9155,31.5326 0.2782,5.1315 0.6118,9.632 0.7415,10.0011 2.0903,5.9528 -3.2693,22.4673 -8.9917,27.7063 -4.2294,3.8721 -1.4084,3.5872 -30.90914,3.121 -15.43416,-0.244 -33.23482,-0.2364 -42.92799,0.018 -62.02953,1.6296 -380.92569,0.1151 -383.5566,-1.8215 z M 32.011572,15.366082 c 0,-0.132 0.432,-0.4712 0.96,-0.753777 0.528,-0.282577 0.96,-0.405776 0.96,-0.273776 0,0.132 -0.432,0.471199 -0.96,0.753776 -0.528,0.282577 -0.96,0.405777 -0.96,0.273777 z m 2.4,-1.44 c 0,-0.132 0.432,-0.4712 0.96,-0.753777 0.528,-0.282577 0.96,-0.405776 0.96,-0.273776 0,0.132 -0.432,0.471199 -0.96,0.753776 -0.528,0.282577 -0.96,0.405777 -0.96,0.273777 z M 614.49162,0.945729 c -2.4,-1.174225 -2.4,-1.174225 -0.2922,-1.073824 1.6991,0.08093 2.1847,0.309796 2.5045,1.1804 0.2182,0.594 0.3497,1.077221 0.2922,1.073824 -0.057,-0.0034 -1.1845,-0.534577 -2.5045,-1.1804 z" />

        <path id="d20"
            d="M 1470 44.5 C 1482.7 42.5 1490.8 47.6 1491 61 C 1491 61 1491 118 1491 118 C 1491 118 1491 370 1491 370 C 1491 373 1491.1 376.1 1490.2 379 C 1486.2 390.7 1469.4 390.4 1459 391.7 C 1459 391.7 1356 405.3 1356 405.3 C 1356 405.3 1257 418.3 1257 418.3 C 1257 418.3 1013 450.7 1013 450.7 C 1013 450.7 908 464.6 908 464.6 C 908 464.6 787 480.6 787 480.6 C 775.5 482.2 756.7 487.7 752.3 472 C 752.1 470.2 752 467.9 752.3 466 C 752.7 457.4 758.3 454.3 765 450.4 C 765 450.4 792 434.9 792 434.9 C 792 434.9 920 361 920 361 C 920 361 1295 144.6 1295 144.6 C 1295 144.6 1411 77.6 1411 77.6 C 1411 77.6 1449 55.6 1449 55.6 C 1455 52.2 1463.8 46.5 1470 44.5 Z M 1520 44.6 C 1531.4 42.6 1535.7 46.8 1545 52.1 C 1545 52.1 1566 64.2 1566 64.2 C 1566 64.2 1669 123.7 1669 123.7 C 1669 123.7 2087 365 2087 365 C 2087 365 2208 434.9 2208 434.9 C 2208 434.9 2232 448.7 2232 448.7 C 2239 452.7 2245.3 456.1 2245.7 465 C 2246 466.9 2245.9 469.2 2245.7 471 C 2241.3 486.9 2221.6 481.4 2210 480.1 C 2210 480.1 2089 464.1 2089 464.1 C 2089 464.1 1970 448.3 1970 448.3 C 1970 448.3 1738 417.7 1738 417.7 C 1738 417.7 1644 405.1 1644 405.1 C 1644 405.1 1541 391.6 1541 391.6 C 1530.5 390.1 1513.9 390.9 1509.8 379 C 1508.9 376.1 1509 373 1509 370 C 1509 370 1509 123 1509 123 C 1509 123 1509 61 1509 61 C 1509.1 52.4 1511.6 47.5 1520 44.6 Z M 1446 411.2 C 1446 411.2 1450 411.2 1450 411.2 C 1452.6 410.9 1455.5 411 1458 411.9 C 1461.7 413.1 1464.5 415.6 1466.3 419 C 1472.3 430.7 1460.9 445.1 1455.3 455 C 1455.3 455 1376.2 592 1376.2 592 C 1376.2 592 1056.8 1145 1056.8 1145 C 1056.8 1145 965 1304 965 1304 C 965 1304 946 1337 946 1337 C 941.2 1345.3 938.1 1351.7 927 1350.9 C 916.3 1350.1 913.7 1342.7 911 1334 C 911 1334 902.7 1307 902.7 1307 C 902.7 1307 858 1162 858 1162 C 858 1162 726 732 726 732 C 726 732 683.3 593 683.3 593 C 683.3 593 671 553 671 553 C 669.2 547.4 665.3 536.4 665 531 C 664.3 514.1 675 513.4 688 511.7 C 688 511.7 706 509.3 706 509.3 C 706 509.3 846 490.7 846 490.7 C 846 490.7 998 470.7 998 470.7 C 998 470.7 1333 426.3 1333 426.3 C 1333 426.3 1446 411.2 1446 411.2 Z M 1543 411.6 C 1551 410.2 1557.2 411.9 1565 412.9 C 1565 412.9 1603 417.9 1603 417.9 C 1603 417.9 1738 435.7 1738 435.7 C 1738 435.7 2154 490.7 2154 490.7 C 2154 490.7 2294 509.3 2294 509.3 C 2294 509.3 2313 511.7 2313 511.7 C 2325.9 513.6 2335.7 514.8 2335 531 C 2334.7 536.4 2330.8 547.4 2329 553 C 2329 553 2316.7 593 2316.7 593 C 2316.7 593 2274 732 2274 732 C 2274 732 2183 1028 2183 1028 C 2183 1028 2141.3 1164 2141.3 1164 C 2141.3 1164 2123 1224 2123 1224 C 2123 1224 2096.7 1309 2096.7 1309 C 2096.7 1309 2089.3 1333 2089.3 1333 C 2088 1337.2 2087.3 1341.4 2084.4 1344.9 C 2080.8 1349.5 2075.7 1351.3 2070 1350.9 C 2061.2 1350.3 2058.5 1344.8 2054.6 1338 C 2054.6 1338 2037.8 1309 2037.8 1309 C 2037.8 1309 1961 1176 1961 1176 C 1961 1176 1893.6 1059 1893.6 1059 C 1893.6 1059 1725.4 768 1725.4 768 C 1725.4 768 1641.2 622 1641.2 622 C 1641.2 622 1602.6 555 1602.6 555 C 1602.6 555 1551.2 466 1551.2 466 C 1547.5 459.5 1533.8 437.5 1532.5 432 C 1530.3 422.6 1533.7 414.8 1543 411.6 Z M 1495 431.6 C 1510.9 428.8 1513.8 437.3 1520.8 449 C 1520.8 449 1536.4 476 1536.4 476 C 1536.4 476 1589.6 568 1589.6 568 C 1589.6 568 1627.6 634 1627.6 634 C 1627.6 634 1671.4 710 1671.4 710 C 1671.4 710 1768.4 878 1768.4 878 C 1768.4 878 1880.4 1072 1880.4 1072 C 1880.4 1072 1956.7 1204 1956.7 1204 C 1956.7 1204 2037 1343 2037 1343 C 2040.2 1348.4 2049.8 1363.8 2050.7 1369 C 2052.1 1377.1 2049.3 1385.3 2041 1388.2 C 2038.1 1389.1 2035 1389 2032 1389 C 2032 1389 1500 1389 1500 1389 C 1500 1389 968 1389 968 1389 C 965 1389 961.9 1389.1 959 1388.2 C 950.8 1385.3 947.8 1377 949.3 1369 C 950.1 1364.9 953.5 1359.7 955.6 1356 C 955.6 1356 967.7 1335 967.7 1335 C 967.7 1335 1022.6 1240 1022.6 1240 C 1022.6 1240 1060.6 1174 1060.6 1174 C 1060.6 1174 1186.4 956 1186.4 956 C 1186.4 956 1378.2 624 1378.2 624 C 1378.2 624 1460.2 482 1460.2 482 C 1460.2 482 1480.4 447 1480.4 447 C 1484.8 439.6 1486.2 434.6 1495 431.6 Z M 668 657.6 C 683.3 654.9 685.8 663 689.7 675 C 689.7 675 695.3 693 695.3 693 C 695.3 693 733.7 818 733.7 818 C 733.7 818 787 992 787 992 C 787 992 861.7 1235 861.7 1235 C 861.7 1235 894.3 1341 894.3 1341 C 894.3 1341 901.3 1364 901.3 1364 C 903.7 1371.3 906.8 1380.3 904.1 1388 C 901.5 1395.8 895 1397.3 888 1399.7 C 888 1399.7 852 1412 852 1412 C 852 1412 730 1454.3 730 1454.3 C 730 1454.3 703 1463.6 703 1463.6 C 703 1463.6 690 1468 690 1468 C 679.3 1471.5 662.9 1477 657.9 1462 C 656.9 1459.1 657 1456 657 1453 C 657 1453 657 847 657 847 C 657 847 657 704 657 704 C 657 704 657 680 657 680 C 657 675.7 656.6 669.9 658.2 666 C 660.3 661.2 663.3 659.2 668 657.6 Z M 2323 657.6 C 2335.3 655.4 2342.8 661.4 2343 674 C 2343 674 2343 805 2343 805 C 2343 805 2343 1299 2343 1299 C 2343 1299 2343 1432 2343 1432 C 2343 1432 2343 1453 2343 1453 C 2343 1465.5 2338.5 1472.5 2325 1472 C 2318.9 1471.7 2306.1 1466.7 2300 1464.4 C 2300 1464.4 2268 1453.3 2268 1453.3 C 2268 1453.3 2150 1412.7 2150 1412.7 C 2150 1412.7 2113 1400 2113 1400 C 2106.2 1397.7 2099.3 1396.3 2096.2 1389 C 2092.2 1379.4 2099.2 1361.7 2102.3 1352 C 2102.3 1352 2127.6 1270 2127.6 1270 C 2127.6 1270 2170 1132 2170 1132 C 2170 1132 2233 927 2233 927 C 2233 927 2295.7 723 2295.7 723 C 2295.7 723 2310 676 2310 676 C 2312.9 667.1 2312.9 661.1 2323 657.6 Z M 976 1407.6 C 976 1407.6 1006 1407 1006 1407 C 1006 1407 1063 1407 1063 1407 C 1063 1407 1240 1407 1240 1407 C 1240 1407 1789 1407 1789 1407 C 1789 1407 1979 1407 1979 1407 C 1979 1407 2018 1407 2018 1407 C 2028.6 1407.1 2035.7 1412.8 2034.9 1424 C 2034.4 1431.2 2029.8 1435.2 2025 1440 C 2025 1440 2005 1460 2005 1460 C 2005 1460 1980 1485 1980 1485 C 1980 1485 1971 1495 1971 1495 C 1971 1495 1917 1549 1917 1549 C 1917 1549 1892 1575 1892 1575 C 1892 1575 1826 1641 1826 1641 C 1826 1641 1813 1655 1813 1655 C 1813 1655 1747 1721 1747 1721 C 1747 1721 1737 1732 1737 1732 C 1737 1732 1671 1798 1671 1798 C 1671 1798 1660 1810 1660 1810 C 1660 1810 1616 1854 1616 1854 C 1616 1854 1591 1879 1591 1879 C 1591 1879 1582 1889 1582 1889 C 1582 1889 1537 1934 1537 1934 C 1537 1934 1518 1953 1518 1953 C 1513.9 1957 1509.9 1961.5 1504 1962.7 C 1492.7 1964.8 1487.3 1958.3 1480 1951 C 1480 1951 1469 1940 1469 1940 C 1469 1940 1418 1889 1418 1889 C 1418 1889 1392 1862 1392 1862 C 1392 1862 1341 1811 1341 1811 C 1341 1811 1330 1799 1330 1799 C 1330 1799 1263 1732 1263 1732 C 1263 1732 1253 1721 1253 1721 C 1253 1721 1187 1655 1187 1655 C 1187 1655 1174 1641 1174 1641 C 1174 1641 1108 1575 1108 1575 C 1108 1575 1098 1564 1098 1564 C 1098 1564 1069 1535 1069 1535 C 1069 1535 980 1445 980 1445 C 973.1 1438.1 964.3 1431.8 965.1 1421 C 965.4 1416.9 967 1413.3 970.2 1410.6 C 972.2 1408.8 973.6 1408.4 976 1407.6 Z M 910 1411.7 C 913.5 1411 916.6 1410.7 920 1411.7 C 927.3 1414.3 941.5 1430.8 947.2 1437 C 947.2 1437 967 1457 967 1457 C 967 1457 1025.2 1516 1025.2 1516 C 1025.2 1516 1045 1536 1045 1536 C 1045 1536 1096 1587 1096 1587 C 1096 1587 1104 1596 1104 1596 C 1104 1596 1173 1665 1173 1665 C 1173 1665 1183 1676 1183 1676 C 1183 1676 1250 1743 1250 1743 C 1250 1743 1260 1754 1260 1754 C 1260 1754 1295 1789 1295 1789 C 1295 1789 1330 1824 1330 1824 C 1330 1824 1348 1843 1348 1843 C 1354.4 1849.4 1366.2 1858.7 1366.9 1868 C 1367.7 1878.5 1360.5 1885.6 1350 1884.9 C 1344 1884.5 1338.2 1880.4 1333 1877.4 C 1333 1877.4 1305 1861.3 1305 1861.3 C 1305 1861.3 1199 1800 1199 1800 C 1199 1800 1127 1758.6 1127 1758.6 C 1127 1758.6 933 1646.4 933 1646.4 C 933 1646.4 838 1591.6 838 1591.6 C 838 1591.6 725 1526.4 725 1526.4 C 725 1526.4 711 1518.3 711 1518.3 C 700.6 1512.3 690.6 1508.4 693.3 1494 C 694.9 1486 700.2 1483.8 707 1481.2 C 707 1481.2 745 1468 745 1468 C 745 1468 851 1431.7 851 1431.7 C 851 1431.7 881 1421.3 881 1421.3 C 881 1421.3 910 1411.7 910 1411.7 Z M 2081 1411.6 C 2089.3 1410.1 2094.3 1412.8 2102 1415.3 C 2102 1415.3 2135 1426.7 2135 1426.7 C 2135 1426.7 2210 1452.7 2210 1452.7 C 2210 1452.7 2264 1471 2264 1471 C 2271.2 1473.7 2296.5 1481.6 2300.9 1484.8 C 2307.7 1489.9 2309 1501.1 2304.2 1507.9 C 2301.3 1511.9 2295.3 1514.7 2291 1517.2 C 2291 1517.2 2263 1533.4 2263 1533.4 C 2263 1533.4 2159 1593.4 2159 1593.4 C 2159 1593.4 1951 1713.6 1951 1713.6 C 1951 1713.6 1804 1798.4 1804 1798.4 C 1804 1798.4 1674 1873.4 1674 1873.4 C 1664.7 1878.8 1652.1 1889 1641 1883.3 C 1637.5 1881.5 1635.1 1878.7 1633.8 1875 C 1633.1 1872.9 1632.9 1870.3 1633.1 1868 C 1633.6 1860.8 1638.2 1856.8 1643 1852 C 1643 1852 1660 1835 1660 1835 C 1660 1835 1672 1822 1672 1822 C 1672 1822 1736 1758 1736 1758 C 1736 1758 1750 1743 1750 1743 C 1750 1743 1816 1677 1816 1677 C 1816 1677 1829 1663 1829 1663 C 1829 1663 1895 1597 1895 1597 C 1895 1597 1905 1586 1905 1586 C 1905 1586 1974.9 1516 1974.9 1516 C 1974.9 1516 2048 1442 2048 1442 C 2056.3 1433.6 2070.5 1415.2 2081 1411.6 Z" />

        <clipPath id="upper_half_d20">
            <rect width="100%" height="50%"
                transform="translate(1500 1000) rotate(-90) translate(-1500 -1000)" />
        </clipPath>

        <clipPath id="lower_half_d20">
            <rect width="100%" height="50%" y="50%"
                transform="translate(1500 1000) rotate(-90) translate(-1500 -1000)" />
        </clipPath>

        <clipPath id="lower_half_dragon">
            <rect width="100%" height="100%" y="607.5" />
        </clipPath>
    </defs>

    <rect width="100%" height="100%" fill="black" />
    <rect width="100%" height="50%" y="50%" fill="red" />

    <g transform="translate(1500 1000) rotate(90) translate(-1500 -1000)">
        <use href="#d20" fill="red" clip-path="url(#upper_half_d20)" />
        <use href="#d20" fill="black" clip-path="url(#lower_half_d20)" />
    </g>

    
    <use href="#dragon" fill="black" transform="translate(1000 150) scale(1.4)" />
    <use href="#dragon" fill="red" transform="translate(1000 150) scale(1.4)" clip-path="url(#lower_half_dragon)" />
</svg>