<svg xmlns="http://www.w3.org/2000/svg"
    width="150 cm" height="100 cm"
    viewBox="0 0 3000 2000">

    <defs>
        <path id="dragon"
            d="m 115.975,1145.6675 c -9.70541,-7.1444 -12.11919,-20.0045 -8.61874,-45.9189 0.5064,-3.7489 1.1366,-8.9364 1.40046,-11.5277 0.69209,-6.797 3.43076,-11.6457 7.57416,-13.4096 5.36596,-2.2844 37.25038,-3.4456 45.82866,-1.6691 3.18794,0.6602 3.18794,0.6602 4.9521,-5.1348 6.83259,-22.4441 7.99144,-25.1076 14.06495,-32.3274 2.62605,-3.1217 3.68008,-3.6802 8.78935,-4.6579 5.61347,-1.074 7.31607,-1.8763 6.91146,-3.2565 -0.74185,-2.5305 -2.52097,-5.574 -6.6034,-11.2964 -23.78442,-33.33921 -8.47963,-91.32998 28.34725,-107.40945 8.43132,-3.68131 11.1587,-5.4755 14.36401,-9.44909 8.30244,-10.29259 92.70647,-127.4195 134.46654,-186.59836 11.96836,-16.96056 28.70721,-44.80392 36.79217,-61.2 4.70244,-9.5364 12.54123,-33.8233 16.03462,-49.68 3.77945,-17.15516 5.09682,-30.04565 5.07713,-49.68 -0.017,-16.87431 -0.0405,-17.17181 -3.09586,-39.12 -1.04742,-7.524 -2.5652,-18.432 -3.37285,-24.24 -2.53548,-18.23325 -2.93728,-19.76253 -5.2532,-19.99418 -3.07029,-0.30711 -3.28075,18.5787 -0.54108,48.55418 1.05822,11.57832 -1.4743,15.3864 -10.30938,15.50188 -5.61576,0.0734 -6.74651,-0.52137 -7.43334,-3.91017 -1.35811,-6.7008 -6.99599,-21.68914 -15.1031,-40.15171 -2.55036,-5.808 -5.19481,-11.856 -5.87655,-13.44 -3.81808,-8.87113 -20.48077,-24.58341 -28.05178,-26.45174 -12.64529,-3.12054 -20.32667,10.02114 -10.76466,18.4167 1.07728,0.94587 1.87715,2.21958 2.23219,3.55456 0.30432,1.14426 1.01955,2.83648 1.5894,3.76048 4.05448,6.57427 -0.22928,21.3227 -7.12391,24.52665 -6.33513,2.94399 -8.42639,1.79928 -42.72,-23.3843 -21.79761,-16.00712 -23.77857,-16.96048 -29.89447,-14.38713 -6.8736,2.89217 -12.14779,4.03562 -25.54554,5.53832 -9.29574,1.04263 -13.93504,1.91202 -18.10309,3.39248 -1.5273,0.54249 -5.17568,1.49873 -8.10751,2.125 -5.86803,1.25346 -8.2462,2.28625 -11.88175,5.15999 -5.28757,4.17959 -12.8163,6.95875 -22.50057,8.30596 -10.79305,1.50139 -14.74562,2.27439 -27.00708,5.28159 -17.94884,4.40208 -19.87821,4.71052 -27.84,4.45022 -14.08943,-0.46061 -22.11509,-5.21165 -29.280008,-17.3332 -4.84648,-8.19923 -6.91793,-10.56639 -12.73944,-14.55805 -13.59479,-9.32157 -11.82899,-16.81394 7.21944,-30.63254 10.92629,-7.92644 13.684078,-9.11327 30.000008,-12.91079 5.016,-1.16747 10.956,-2.81966 13.2,-3.67153 9.02853,-3.4274 8.87051,-3.39418 19.42343,-4.08431 7.2435,-0.47371 11.04604,-0.94217 13.45657,-1.65779 11.41052,-3.3875 24.61581,-6.02841 38.4,-7.67959 45.25244,-5.42067 56.16498,-13.04028 25.44,-17.7633 -7.57146,-1.16388 -8.66822,-1.03904 -21.36,2.43128 -6.2043,1.69646 -9.8095,1.91129 -20.64,1.22992 -10.10549,-0.63575 -11.9586,0.29369 -14.633,7.33922 -2.54589,6.70698 -4.75993,8.03369 -17.047,10.21493 -11.68217,2.07387 -22.92366,1.32798 -35.99634,-2.38842 -8.71283,-2.47694 -9.7238,-2.4843 -16.32366,-0.11886 -9.978168,3.57624 -12.373858,3.29714 -20.901628,-2.43497 -9.87267,-6.63612 -24.93319,-13.39078 -29.85673,-13.39078 -4.12662,0 -11.16166,3.74808 -11.16166,5.94663 0,0.61206 -2.91705,3.65337 -3.5041,3.65337 -0.18612,0 -1.09564,0.83817 -2.02116,1.86261 -6.20092,6.86368 -18.77795,3.56597 -22.24666,-5.83309 -3.8625097,-10.46611 -2.0999697,-17.48764 6.79105,-27.05391 18.99341,-20.43591 28.50077,-34.6049 30.16069,-44.94899 2.78906,-17.38055 11.6781,-17.66423 40.50019,-1.29249 12.187718,6.92296 28.395018,6.75562 48.960008,-0.5055 47.32692,-16.71027 80.30003,-37.60421 99.69527,-63.17353 9.7286,-12.8255 13.32015,-14.19347 24.15111,-9.19881 2.64351,1.21905 7.93551,3.11065 11.76001,4.20358 3.82449,1.09291 8.82423,2.62455 11.11054,3.40362 16.1279,5.49571 41.22292,-7.23108 59.65598,-30.25418 2.44216,-3.05029 6.18407,-7.4282 8.31535,-9.7287 6.45671,-6.96933 7.88556,-12.16478 8.74577,-31.80061 0.90328,-20.61868 3.34002,-24.37967 15.32519,-23.65362 14.35346,0.86951 16.46241,8.74728 12.75731,47.65362 -1.41098,14.8164 -3.35611,20.16275 -11.08934,30.48 -16.89228,22.53675 -16.91934,30.65765 -0.0747,22.40223 2.9741,-1.45758 8.21547,-3.76157 11.64747,-5.11998 19.06566,-7.54632 23.72437,-12.10428 64.05066,-62.66563 26.43516,-33.14456 28.88009,-36.48026 34.34099,-46.85245 5.64677,-10.72521 17.30616,-28.57381 23.93736,-36.64416 20.51343,-24.965208 28.3693,-32.555549 41.86527,-40.450061 3.76814,-2.204203 21.32879,-5.860128 28.18169,-5.867112 9.7945,-0.01 16.4874,11.788767 12.8639,22.677485 -1.477,4.438315 -8.3789,9.463127 -17.5624,12.786138 -5.1803,1.87443 -5.9753,2.29058 -12.45572,6.51987 -2.91595,1.90303 -6.51806,4.23577 -8.00467,5.18386 -8.80392,5.61481 -21.82613,17.79066 -25.7028,24.03236 -3.32554,5.35432 -8.74157,15.86654 -10.18661,19.77176 -0.58325,1.57613 -3.30739,6.86561 -6.05371,11.75442 -9.09764,16.1951 -9.28426,16.82953 -9.80981,33.35127 -0.44376,13.94923 -0.49728,13.784 3.08241,9.51567 6.70412,-7.99384 10.69522,-8.75805 19.49372,-3.73266 2.6243,1.4989 5.1731,3.29491 5.66404,3.99113 4.29874,6.0965 4.91405,12.71454 1.66085,17.86257 -1.09713,1.7362 -3.44582,6.0562 -5.21928,9.6 -4.69733,9.38658 -6.04454,11.24739 -19.43453,26.84329 -28.01019,32.62473 -46.17983,52.22901 -54.80724,59.13473 -8.23071,6.58817 -8.24817,10.12327 -0.0929,18.81541 5.94118,6.33233 10.97889,8.7019 27.23423,12.81009 27.89602,7.05013 35.82931,4.29044 49.06915,-17.0693 5.55528,-8.96224 8.42948,-10.85018 15.53703,-10.20569 14.5008,1.31488 13.3343,17.4151 -3.34685,46.19476 -1.53019,2.64 -3.58229,6.42 -4.56014,8.4 -1.51724,3.072 -2.30285,4.01468 -5.35666,6.42744 -11.30266,8.93 -10.58938,14.51125 2.40398,18.81076 2.95244,0.97697 7.20826,2.73161 9.4574,3.8992 4.05792,2.10661 4.14264,2.12656 11.04,2.60094 18.19411,1.25131 26.37961,10.94901 21.11601,25.01707 -3.9773,10.63041 -11.9013,14.74795 -28.40606,14.76065 -8.1948,0.006 -9.37963,3.27781 -3.93811,10.87349 8.88581,12.40352 17.02291,17.19773 38.22697,22.52261 20.2868,5.09452 22.7314,6.82862 23.2926,16.52208 0.7725,13.34472 -11.0888,20.40422 -38.3007,22.79534 -9.74465,0.85627 -15.84003,1.66901 -15.84003,2.11205 0,1.71096 8.50388,11.48409 16.74633,19.24584 10.8122,10.18176 15.5867,13.15392 26.2551,16.34424 18.7194,5.59785 25.6753,13.98115 20.4343,24.62721 -3.6288,7.37112 -9.8193,9.69917 -28.8757,10.85928 -39.96065,2.43264 -43.20804,8.39458 -16.4224,30.15005 39.3639,31.9716 40.7127,38.45775 10.1824,48.96533 -10.2989,3.54456 -15.182,3.15854 -35.47015,-2.80387 -8.95748,-2.63247 -9.63792,-2.49437 -8.91567,1.80931 1.74653,10.40707 12.20467,28.12646 27.21106,46.1041 8.76596,10.50172 8.34496,15.28166 -1.78526,20.26512 -12.94042,6.3659 -26.24842,4.81742 -44.40001,-5.16624 -11.25254,-6.18912 -12.68736,-5.60328 -12.68232,5.178 0.005,9.93772 0.67253,11.67988 8.50613,22.18747 9.85719,13.22193 23.37293,33.55925 26.72439,40.21253 8.5487,16.97088 7.02422,33.96201 -4.0682,45.34152 -4.84478,4.97016 -29.82288,19.87636 -57.48657,34.30632 -27.34846,14.26545 -27.90093,19.22467 -3.23682,29.05444 25.77527,10.27263 43.24093,33.27802 41.58824,54.77914 -1.27478,16.58429 -9.4163,32.06488 -23.83387,45.31858 -12.48693,11.4789 -12.5613,12.9982 -0.79046,16.1483 12.175,3.2583 18.22003,9.8155 26.45496,28.6969 6.606,15.1464 3.81969,13.6792 24.26452,12.7775 14.20244,-0.6264 28.88483,0.7501 32.37183,3.0348 4.5354,2.9717 8.0388,15.3628 8.9155,31.5326 0.2782,5.1315 0.6118,9.632 0.7415,10.0011 2.0903,5.9528 -3.2693,22.4673 -8.9917,27.7063 -4.2294,3.8721 -1.4084,3.5872 -30.90914,3.121 -15.43416,-0.244 -33.23482,-0.2364 -42.92799,0.018 -62.02953,1.6296 -380.92569,0.1151 -383.5566,-1.8215 z M 32.011572,15.366082 c 0,-0.132 0.432,-0.4712 0.96,-0.753777 0.528,-0.282577 0.96,-0.405776 0.96,-0.273776 0,0.132 -0.432,0.471199 -0.96,0.753776 -0.528,0.282577 -0.96,0.405777 -0.96,0.273777 z m 2.4,-1.44 c 0,-0.132 0.432,-0.4712 0.96,-0.753777 0.528,-0.282577 0.96,-0.405776 0.96,-0.273776 0,0.132 -0.432,0.471199 -0.96,0.753776 -0.528,0.282577 -0.96,0.405777 -0.96,0.273777 z M 614.49162,0.945729 c -2.4,-1.174225 -2.4,-1.174225 -0.2922,-1.073824 1.6991,0.08093 2.1847,0.309796 2.5045,1.1804 0.2182,0.594 0.3497,1.077221 0.2922,1.073824 -0.057,-0.0034 -1.1845,-0.534577 -2.5045,-1.1804 z" />
        
        <path id="bestagon"
            d="m 980.95141,1999.16 c -10.87197,-1.5083 -26.05338,-5.2924 -35.46974,-8.8413 C 935.35063,1986.5005 78.757009,1550.4084 60.052082,1539.5462 30.092128,1522.148 8.57886,1492.8961 2.278487,1460.9907 c -3.03798267,-15.3845 -3.03798267,-906.83126 0,-922.21574 C 8.57886,506.86954 30.092128,477.61768 60.052082,460.21948 78.757009,449.35729 935.35063,13.265116 945.48167,9.446946 c 33.40424,-12.5893559 75.50753,-12.5964036 109.03653,-0.01827 9.206,3.453549 867.3589,440.079784 886.0866,450.838774 28.418,16.32614 50.9547,47.30317 57.1167,78.50751 3.038,15.38448 3.038,906.83124 0,922.21574 -5.7829,29.2849 -23.0264,54.8346 -49.6101,73.5069 -10.1604,7.1368 -879.1386,450.4175 -893.5932,455.8374 -19.8379,7.4383 -54.0118,11.5379 -73.56679,8.825 z"/>

        <path id="swampdice"
            d="M 82.255374,382.48557 C 81.388422,382.0601 68.867944,359.51107 49.966278,324.33379 48.803727,322.17021 37.193728,300.689 24.166276,276.59777 8.9260557,248.41454 0.48000001,232.31488 0.48000001,231.44757 c 0,-1.80307 -1.63219821,-0.43794 33.12000099,-27.70074 16.764,-13.1512 30.602386,-24.09293 30.751973,-24.31495 0.149582,-0.22202 9.914165,-7.91058 21.699067,-17.0857 l 21.427099,-16.68204 70.94093,-26.37417 c 85.82299,-31.906981 76.11482,-28.437425 77.49859,-27.696852 0.67931,0.363556 5.58958,7.809158 12.39429,18.793872 6.1981,10.00549 11.34687,18.11419 11.44172,18.01935 0.20595,-0.20595 2.57201,-24.94376 7.25438,-75.846339 3.78938,-41.194745 3.7761,-41.106622 6.27195,-41.63702 0.924,-0.19636 32.35201,-2.6287646 69.84001,-5.4053429 37.488,-2.7765784 68.808,-5.14916695 69.6,-5.27241907 1.79328,-0.27907293 -5.13381,-1.88025893 76.32,17.64124597 38.016,9.111047 72.66019,17.399839 76.98715,18.419538 6.03485,1.422193 8.01307,2.077586 8.49389,2.813998 0.58416,0.894773 -5.54866,189.840579 -6.32942,195.003639 -0.13556,0.89615 -0.68794,1.85632 -1.29404,2.24929 -1.81296,1.1754 -194.94028,29.36668 -196.2888,28.65277 -0.59883,-0.31702 -10.48478,-6.59149 -21.96878,-13.94326 -11.484,-7.35177 -20.96256,-13.2923 -21.06347,-13.20117 -0.10091,0.0911 1.32899,2.60311 3.17756,5.58221 4.68597,7.55177 4.63062,7.42693 3.96372,8.94008 -0.30942,0.70205 -7.83351,7.84481 -16.7202,15.8728 -8.88669,8.028 -39.87588,36.108 -68.86488,62.4 -28.98899,26.29201 -53.28899,48.06514 -54,48.38474 -0.92975,0.41793 -18.14016,0.98748 -61.29274,2.02837 -33,0.79601 -62.375998,1.5489 -65.279999,1.67311 -3.187334,0.13632 -5.686099,0.0265 -6.304627,-0.27701 z M 151.2,374.62388 c 28.908,-0.67381 53.5623,-1.37783 54.78733,-1.56449 l 2.22734,-0.33938 -44.80739,-82.27606 C 138.76322,245.19212 118.38754,207.95555 118.128,207.69601 117.69224,207.26024 9.9280379,232.98604 9.0045486,233.74629 c -0.1954987,0.16094 2.8534894,6.22387 6.7755294,13.47317 3.92204,7.2493 19.173257,35.42855 33.891595,62.62055 14.718336,27.192 28.841348,53.29566 31.384469,58.00814 l 4.623859,8.56814 6.480001,-0.28365 c 3.564,-0.15601 30.131998,-0.83495 59.039998,-1.50876 z M 110.16,324.766 c -15.796486,-5.01691 -27.783699,-29.47603 -18.977926,-38.72321 7.894017,-8.28973 25.891096,3.75006 31.163266,20.84778 3.73483,12.1121 -2.32803,21.00608 -12.18534,17.87543 z m 124.23205,1.64222 c 17.26516,-8.73985 9.16324,-41.99308 -10.23205,-41.99607 -20.08827,-0.003 -21.45781,34.62102 -1.68,42.47322 3.38674,1.3446 8.7366,1.1303 11.91205,-0.47715 z m 69.02575,-53.67128 c 11.62564,-5.67364 13.18454,-24.92902 2.92558,-36.13659 -11.09832,-12.12455 -27.48455,-5.55835 -28.73099,11.51292 -1.19992,16.43418 13.61658,30.57216 25.80541,24.62367 z m 86.5463,-19.17693 c 0.24865,-2.30026 5.50869,-59.46614 16.01297,-174.028189 1.01204,-11.037499 1.71921,-20.141914 1.5715,-20.232029 -0.67641,-0.41267 -110.54336,-40.619837 -110.63564,-40.488481 -0.0575,0.08178 -2.62703,26.981787 -5.71018,59.777795 l -5.60574,59.629104 1.94331,3.17499 c 1.06882,1.74624 2.48344,4.03061 3.1436,5.07638 l 1.2003,1.9014 1.76098,-1.08835 c 10.41775,-6.43852 24.47213,14.55541 19.98492,29.85277 -0.42343,1.44353 -0.79696,3.1646 -0.83007,3.8246 -0.0607,1.20936 24.08231,40.81928 26.25046,43.06754 0.93228,0.96673 49.56393,32.14391 50.30237,32.24825 0.17208,0.0243 0.44712,-1.19778 0.61122,-2.71578 z m -14.36409,-32.84326 c -12.71107,-4.75886 -19.11434,-28.20297 -10.82754,-39.64256 6.56025,-9.05616 19.60567,-1.63402 24.08709,13.70424 4.43995,15.19628 -3.01248,29.77469 -13.25955,25.93832 z m -37.92,-15.88587 c -18.08922,-7.45051 -21.09637,-45.15966 -3.6,-45.14348 13.77273,0.0128 24.02287,27.00636 15.40496,40.56882 -2.63476,4.14647 -7.89521,6.18499 -11.80496,4.57466 z m 48.0294,-90.90525 c -12.43305,-3.81556 -18.95899,-30.018949 -9.97375,-40.04723 10.03006,-11.194373 27.02301,7.726877 24.5595,27.34642 -1.25351,9.98299 -7.03561,15.01786 -14.58575,12.70081 z M 348.10472,98.19246 c -12.39499,-3.981547 -19.76549,-27.467362 -12.44756,-39.663706 7.07979,-11.79946 22.02927,-3.682532 26.31796,14.289528 3.69514,15.484685 -3.52701,28.696708 -13.8704,25.374178 z M 310.20111,79.240298 C 302.36675,75.58086 296.3864,62.032994 298.00789,51.617809 c 3.18092,-20.431658 23.67073,-13.225999 26.49757,9.318404 1.61592,12.88729 -5.74254,22.303311 -14.30435,18.304085 z M 172.14793,238.29904 c 9.45436,-4.59205 12.58627,-18.67531 6.73639,-30.29161 -7.47028,-14.83399 -24.19591,-16.13848 -30.60051,-2.38665 -8.18746,17.57997 8.34358,40.2167 23.86412,32.67826 z M 67.200001,212.70112 c 26.004001,-6.31228 48.149369,-11.71156 49.211939,-11.9984 1.45609,-0.39307 10.38217,-7.33789 36.24,-28.19609 18.86943,-15.221 45.28084,-36.52699 58.69203,-47.34663 13.41117,-10.81964 24.30498,-19.75105 24.20846,-19.84757 -0.0965,-0.0965 -28.16982,10.22351 -62.38509,22.93341 l -62.2096,23.10892 -6.15887,4.86842 c -3.38738,2.67763 -24.248869,19.0706 -46.358869,36.42882 -39.049093,30.65685 -41.143666,32.34854 -39.360001,31.78935 0.462,-0.14484 22.116001,-5.42794 48.120001,-11.74023 z M 100.44,195.52211 c -3.941182,-1.5903 6.4224,-10.32326 18.10055,-15.25256 14.91095,-6.29387 23.08599,-5.3432 15.71325,1.82727 -8.00703,7.78736 -28.05736,15.74806 -33.8138,13.42529 z m -0.24,-30.92055 c -3.755725,-2.18751 8.45088,-11.23202 20.66261,-15.31 10.81574,-3.6118 15.05992,-1.81416 8.93441,3.78421 -7.5229,6.8755 -25.5369,13.89059 -29.59702,11.52579 z m 449.61351,51.62681 c 10.67909,-1.73114 19.47783,-17.47598 16.41903,-29.381 -6.2053,-24.15145 -36.4968,-13.54476 -35.2502,12.34301 0.49868,10.35574 8.12223,18.70221 15.97767,17.49274 0.528,-0.0813 1.81205,-0.28593 2.8535,-0.45475 z M 251.39133,175.69682 c 12.16648,-5.5229 13.85158,-25.33981 3.11212,-36.599 -11.48993,-12.04601 -27.40668,-5.24023 -28.30425,12.10252 -0.84165,16.26219 13.2169,29.93255 25.19213,24.49648 z m 255.20313,-10.51856 c 14.23694,-7.00883 17.80728,-30.36294 5.95444,-38.94909 -8.13451,-5.89259 -19.84195,-1.75981 -25.47998,8.99453 -9.54056,18.19831 3.32222,37.93141 19.52554,29.95456 z m -46.99445,-48.30394 c 12.81287,-6.038 17.6076,-26.638796 8.54585,-36.717654 -10.84561,-12.062919 -29.66234,-1.337342 -31.16364,17.763337 -1.16302,14.796647 10.57195,24.630857 22.61779,18.954317 z m 4.31677,-67.686256 c 28.24979,-2.514562 63.45923,-5.647377 78.24323,-6.961808 14.784,-1.314431 27.312,-2.45029 27.84,-2.524131 1.13414,-0.158611 -3.96307,-1.406403 -78.81312,-19.293364 L 433.97377,6.7365093 399.98689,9.3292121 c -18.69279,1.4259869 -46.46088,3.5279999 -61.70688,4.6711399 -15.246,1.143141 -27.72,2.19882 -27.72,2.345954 0,0.147134 11.394,4.454134 25.32,9.57111 13.926,5.116977 36.552,13.454451 50.28,18.527719 13.728,5.073269 25.28254,9.244542 25.67677,9.269497 0.39422,0.02496 23.83022,-2.012002 52.08,-4.526568 z m 23.11705,-6.291208 c -21.46663,-4.604568 -19.34994,-18.272357 2.80618,-18.119906 18.52665,0.127477 30.8184,10.042193 20.17939,16.277055 -4.2949,2.516999 -15.61248,3.424374 -22.98557,1.842851 z M 378.56119,33.314661 c -8.6604,-1.564878 -15.68118,-6.096563 -15.68118,-10.121686 0,-11.649923 37.85699,-10.29919 41.74763,1.48955 2.21909,6.723913 -11.4943,11.265226 -26.06645,8.632136 z"/>
    
        <path id="filled_swampdice"
            d="M 82.255374,382.48557 C 81.388422,382.0601 68.867944,359.51107 49.966278,324.33379 48.803727,322.17021 37.193728,300.689 24.166276,276.59777 8.9260557,248.41454 0.48000001,232.31488 0.48000001,231.44757 c 0,-1.80307 -1.63219821,-0.43794 33.12000099,-27.70074 16.764,-13.1512 30.602386,-24.09293 30.751973,-24.31495 0.149582,-0.22202 9.914165,-7.91058 21.699067,-17.0857 l 21.427099,-16.68204 70.94093,-26.37417 c 85.82299,-31.906981 76.11482,-28.437425 77.49859,-27.696852 0.67931,0.363556 5.58958,7.809158 12.39429,18.793872 6.1981,10.00549 11.34687,18.11419 11.44172,18.01935 0.20595,-0.20595 2.57201,-24.94376 7.25438,-75.846339 3.78938,-41.194745 3.7761,-41.106622 6.27195,-41.63702 0.924,-0.19636 32.35201,-2.6287646 69.84001,-5.4053429 37.488,-2.7765784 68.808,-5.14916695 69.6,-5.27241907 1.79328,-0.27907293 -5.13381,-1.88025893 76.32,17.64124597 38.016,9.111047 72.66019,17.399839 76.98715,18.419538 6.03485,1.422193 8.01307,2.077586 8.49389,2.813998 0.58416,0.894773 -5.54866,189.840579 -6.32942,195.003639 -0.13556,0.89615 -0.68794,1.85632 -1.29404,2.24929 -1.81296,1.1754 -194.94028,29.36668 -196.2888,28.65277 -0.59883,-0.31702 -10.48478,-6.59149 -21.96878,-13.94326 -11.484,-7.35177 -20.96256,-13.2923 -21.06347,-13.20117 -0.10091,0.0911 1.32899,2.60311 3.17756,5.58221 4.68597,7.55177 4.63062,7.42693 3.96372,8.94008 -0.30942,0.70205 -7.83351,7.84481 -16.7202,15.8728 -8.88669,8.028 -39.87588,36.108 -68.86488,62.4 -28.98899,26.29201 -53.28899,48.06514 -54,48.38474 -0.92975,0.41793 -18.14016,0.98748 -61.29274,2.02837 -33,0.79601 -62.375998,1.5489 -65.279999,1.67311 -3.187334,0.13632 -5.686099,0.0265 -6.304627,-0.M 151.2,374.62388 c 28.908,-0.67381 53.5623,-1.37783 54.78733,-1.56449 l 2.22734,-0.33938 -44.80739,-82.27606 C 138.76322,245.19212 118.38754,207.95555 118.128,207.69601 117.69224,207.26024 9.9280379,232.98604 9.0045486,233.74629 c -0.1954987,0.16094 2.8534894,6.22387 6.7755294,13.47317 3.92204,7.2493 19.173257,35.42855 33.891595,62.62055 14.718336,27.192 28.841348,53.29566 31.384469,58.00814 l 4.623859,8.56814 6.480001,-0.28365 c 3.564,-0.15601 30.131998,-0.83495 59.039998,-1.50876 z M 110.16,324.766 c -15.796486,-5.01691 -27.783699,-29.47603 -18.977926,-38.72321 7.894017,-8.28973 25.891096,3.75006 31.163266,20.84778 3.73483,12.1121 -2.32803,21.00608 -12.18534,17.87543 z m 124.23205,1.64222 c 17.26516,-8.73985 9.16324,-41.99308 -10.23205,-41.99607 -20.08827,-0.003 -21.45781,34.62102 -1.68,42.47322 3.38674,1.3446 8.7366,1.1303 11.91205,-0.47715 z m 69.02575,-53.67128 c 11.62564,-5.67364 13.18454,-24.92902 2.92558,-36.13659 -11.09832,-12.12455 -27.48455,-5.55835 -28.73099,11.51292 -1.19992,16.43418 13.61658,30.57216 25.80541,24.62367 z m 86.5463,-19.17693 c 0.24865,-2.30026 5.50869,-59.46614 16.01297,-174.028189 1.01204,-11.037499 1.71921,-20.141914 1.5715,-20.232029 -0.67641,-0.41267 -110.54336,-40.619837 -110.63564,-40.488481 -0.0575,0.08178 -2.62703,26.981787 -5.71018,59.777795 l -5.60574,59.629104 1.94331,3.17499 c 1.06882,1.74624 2.48344,4.03061 3.1436,5.07638 l 1.2003,1.9014 1.76098,-1.08835 c 10.41775,-6.43852 24.47213,14.55541 19.98492,29.85277 -0.42343,1.44353 -0.79696,3.1646 -0.83007,3.8246 -0.0607,1.20936 24.08231,40.81928 26.25046,43.06754 0.93228,0.96673 49.56393,32.14391 50.30237,32.24825 0.17208,0.0243 0.44712,-1.19778 0.61122,-2.71578 z m -14.36409,-32.84326 c -12.71107,-4.75886 -19.11434,-28.20297 -10.82754,-39.64256 6.56025,-9.05616 19.60567,-1.63402 24.08709,13.70424 4.43995,15.19628 -3.01248,29.77469 -13.25955,25.93832 z m -37.92,-15.88587 c -18.08922,-7.45051 -21.09637,-45.15966 -3.6,-45.14348 13.77273,0.0128 24.02287,27.00636 15.40496,40.56882 -2.63476,4.14647 -7.89521,6.18499 -11.80496,4.57466 z m 48.0294,-90.90525 c -12.43305,-3.81556 -18.95899,-30.018949 -9.97375,-40.04723 10.03006,-11.194373 27.02301,7.726877 24.5595,27.34642 -1.25351,9.98299 -7.03561,15.01786 -14.58575,12.70081 z M 348.10472,98.19246 c -12.39499,-3.981547 -19.76549,-27.467362 -12.44756,-39.663706 7.07979,-11.79946 22.02927,-3.682532 26.31796,14.289528 3.69514,15.484685 -3.52701,28.696708 -13.8704,25.374178 z M 310.20111,79.240298 C 302.36675,75.58086 296.3864,62.032994 298.00789,51.617809 c 3.18092,-20.431658 23.67073,-13.225999 26.49757,9.318404 1.61592,12.88729 -5.74254,22.303311 -14.30435,18.304085 z M 172.14793,238.29904 c 9.45436,-4.59205 12.58627,-18.67531 6.73639,-30.29161 -7.47028,-14.83399 -24.19591,-16.13848 -30.60051,-2.38665 -8.18746,17.57997 8.34358,40.2167 23.86412,32.67826 z M 67.200001,212.70112 c 26.004001,-6.31228 48.149369,-11.71156 49.211939,-11.9984 1.45609,-0.39307 10.38217,-7.33789 36.24,-28.19609 18.86943,-15.221 45.28084,-36.52699 58.69203,-47.34663 13.41117,-10.81964 24.30498,-19.75105 24.20846,-19.84757 -0.0965,-0.0965 -28.16982,10.22351 -62.38509,22.93341 l -62.2096,23.10892 -6.15887,4.86842 c -3.38738,2.67763 -24.248869,19.0706 -46.358869,36.42882 -39.049093,30.65685 -41.143666,32.34854 -39.360001,31.78935 0.462,-0.14484 22.116001,-5.42794 48.120001,-11.74023 z M 100.44,195.52211 c -3.941182,-1.5903 6.4224,-10.32326 18.10055,-15.25256 14.91095,-6.29387 23.08599,-5.3432 15.71325,1.82727 -8.00703,7.78736 -28.05736,15.74806 -33.8138,13.42529 z m -0.24,-30.92055 c -3.755725,-2.18751 8.45088,-11.23202 20.66261,-15.31 10.81574,-3.6118 15.05992,-1.81416 8.93441,3.78421 -7.5229,6.8755 -25.5369,13.89059 -29.59702,11.52579 z m 449.61351,51.62681 c 10.67909,-1.73114 19.47783,-17.47598 16.41903,-29.381 -6.2053,-24.15145 -36.4968,-13.54476 -35.2502,12.34301 0.49868,10.35574 8.12223,18.70221 15.97767,17.49274 0.528,-0.0813 1.81205,-0.28593 2.8535,-0.45475 z M 251.39133,175.69682 c 12.16648,-5.5229 13.85158,-25.33981 3.11212,-36.599 -11.48993,-12.04601 -27.40668,-5.24023 -28.30425,12.10252 -0.84165,16.26219 13.2169,29.93255 25.19213,24.49648 z m 255.20313,-10.51856 c 14.23694,-7.00883 17.80728,-30.36294 5.95444,-38.94909 -8.13451,-5.89259 -19.84195,-1.75981 -25.47998,8.99453 -9.54056,18.19831 3.32222,37.93141 19.52554,29.95456 z m -46.99445,-48.30394 c 12.81287,-6.038 17.6076,-26.638796 8.54585,-36.717654 -10.84561,-12.062919 -29.66234,-1.337342 -31.16364,17.763337 -1.16302,14.796647 10.57195,24.630857 22.61779,18.954317 z m 4.31677,-67.686256 c 28.24979,-2.514562 63.45923,-5.647377 78.24323,-6.961808 14.784,-1.314431 27.312,-2.45029 27.84,-2.524131 1.13414,-0.158611 -3.96307,-1.406403 -78.81312,-19.293364 L 433.97377,6.7365093 399.98689,9.3292121 c -18.69279,1.4259869 -46.46088,3.5279999 -61.70688,4.6711399 -15.246,1.143141 -27.72,2.19882 -27.72,2.345954 0,0.147134 11.394,4.454134 25.32,9.57111 13.926,5.116977 36.552,13.454451 50.28,18.527719 13.728,5.073269 25.28254,9.244542 25.67677,9.269497 0.39422,0.02496 23.83022,-2.012002 52.08,-4.526568 z m 23.11705,-6.291208 c -21.46663,-4.604568 -19.34994,-18.272357 2.80618,-18.119906 18.52665,0.127477 30.8184,10.042193 20.17939,16.277055 -4.2949,2.516999 -15.61248,3.424374 -22.98557,1.842851 z M 378.56119,33.314661 c -8.6604,-1.564878 -15.68118,-6.096563 -15.68118,-10.121686 0,-11.649923 37.85699,-10.29919 41.74763,1.48955 2.21909,6.723913 -11.4943,11.265226 -26.06645,8.632136 z"/>
    </defs>

    <rect id="background" width="100%" height="100%" fill="#fe0000" />

    <use href="#bestagon" transform="translate(1500 1000) scale(.8) translate(-1000 -1000)" fill="none" stroke="black" stroke-width="50" />

    <use href="#dragon" transform="translate(1500 1000) scale(1) translate(-350 -574)" fill="black" />

    <use href="#filled_swampdice" transform="translate(1700 1450) scale(.9)" fill="#fe0000" />
    <use href="#swampdice" transform="translate(1700 1450) scale(.9)" fill="black"/>
</svg>