<svg xmlns="http://www.w3.org/2000/svg"
    width="150 cm" height="100 cm"
    viewBox="0 0 3000 2000">

    <defs>
        <path id="clubs"
            d="M19.21,28.22c-12.744,0-12.976,16.22,0,16.22c7.647,0,11.818-7.491,14.367-4.865  c2.395,2.472-1.391,15.911-1.699,18.073c-0.464,2.936,2.008,5.253,4.712,5.253c2.857,0,4.865-2.317,4.325-5.253  c-0.387-2.162-3.785-15.524-1.313-18.073c2.395-2.472,7.029,4.942,15.217,4.865c11.662-0.076,11.662-16.22,0-16.22  c-8.033,0-12.745,7.415-15.217,4.943c-2.317-2.317,4.943-5.021,4.943-12.899c0-11.432-16.065-11.432-16.065-0.077  c0,7.956,7.492,10.736,5.098,12.976C30.951,35.635,26.857,28.22,19.21,28.22z"/>

        <path id="diamonds"
            d="M36.143,9.601c-5.631,9.257-16.662,20.982-25.688,27.154c9.026,5.708,20.057,17.896,25.688,26.846  c5.632-8.949,17.28-21.138,25.998-27.077C53.423,30.583,41.774,18.857,36.143,9.601z"/>

        <path id="hearts"
            d="M35.84,21.358c-11.368-11.92-27-6-27,9c0,14.684,14.842,18.631,21.158,24.947  c0.947,0.947,3.711,3.474,5.921,7.895c2.289-4.421,4.974-6.947,5.921-7.895c6-6.316,21-10.264,21-24.632  C62.84,15.358,47.051,9.438,35.84,21.358z"/>

        <path id="spades"
            d="M36.067,10.646C29.462,25.327,11.332,27.309,9.35,39.199C7.441,51.017,22.636,58.356,33.572,49.988  c1.468,3.084-0.367,8.001-3.377,12.111c1.541-0.513,4.624-0.733,5.872-0.733s4.33,0.221,5.872,0.733  c-3.01-4.11-4.771-9.027-3.377-12.111c12.772,7.928,26.352,0.882,24.443-10.789C60.95,26.648,42.674,25.327,36.067,10.646z"/>
    </defs>

    <rect id="background" width="50%" height="50%" fill="#fe0000" />
    <rect id="background" width="50%" height="50%" x="50%" fill="black" />
    <rect id="background" width="50%" height="50%" y="50%" fill="black" />
    <rect id="background" width="50%" height="50%" x="50%" y="50%"  fill="#fe0000" />

    <use href="#clubs" fill="black" transform="translate(400 150) scale(10)"/>
    <use href="#hearts" fill="#fe0000" transform="translate(1900 150) scale(10)"/>
    <use href="#diamonds" fill="#fe0000" transform="translate(400 1150) scale(10)"/>
    <use href="#spades" fill="black" transform="translate(1900 1150) scale(10)"/>
</svg>