<svg xmlns="http://www.w3.org/2000/svg"
    width="150 cm" height="100 cm"
    viewBox="0 0 3000 2000">
    
    <defs>
        <path id="dragon"
            d="m 115.975,1145.6675 c -9.70541,-7.1444 -12.11919,-20.0045 -8.61874,-45.9189 0.5064,-3.7489 1.1366,-8.9364 1.40046,-11.5277 0.69209,-6.797 3.43076,-11.6457 7.57416,-13.4096 5.36596,-2.2844 37.25038,-3.4456 45.82866,-1.6691 3.18794,0.6602 3.18794,0.6602 4.9521,-5.1348 6.83259,-22.4441 7.99144,-25.1076 14.06495,-32.3274 2.62605,-3.1217 3.68008,-3.6802 8.78935,-4.6579 5.61347,-1.074 7.31607,-1.8763 6.91146,-3.2565 -0.74185,-2.5305 -2.52097,-5.574 -6.6034,-11.2964 -23.78442,-33.33921 -8.47963,-91.32998 28.34725,-107.40945 8.43132,-3.68131 11.1587,-5.4755 14.36401,-9.44909 8.30244,-10.29259 92.70647,-127.4195 134.46654,-186.59836 11.96836,-16.96056 28.70721,-44.80392 36.79217,-61.2 4.70244,-9.5364 12.54123,-33.8233 16.03462,-49.68 3.77945,-17.15516 5.09682,-30.04565 5.07713,-49.68 -0.017,-16.87431 -0.0405,-17.17181 -3.09586,-39.12 -1.04742,-7.524 -2.5652,-18.432 -3.37285,-24.24 -2.53548,-18.23325 -2.93728,-19.76253 -5.2532,-19.99418 -3.07029,-0.30711 -3.28075,18.5787 -0.54108,48.55418 1.05822,11.57832 -1.4743,15.3864 -10.30938,15.50188 -5.61576,0.0734 -6.74651,-0.52137 -7.43334,-3.91017 -1.35811,-6.7008 -6.99599,-21.68914 -15.1031,-40.15171 -2.55036,-5.808 -5.19481,-11.856 -5.87655,-13.44 -3.81808,-8.87113 -20.48077,-24.58341 -28.05178,-26.45174 -12.64529,-3.12054 -20.32667,10.02114 -10.76466,18.4167 1.07728,0.94587 1.87715,2.21958 2.23219,3.55456 0.30432,1.14426 1.01955,2.83648 1.5894,3.76048 4.05448,6.57427 -0.22928,21.3227 -7.12391,24.52665 -6.33513,2.94399 -8.42639,1.79928 -42.72,-23.3843 -21.79761,-16.00712 -23.77857,-16.96048 -29.89447,-14.38713 -6.8736,2.89217 -12.14779,4.03562 -25.54554,5.53832 -9.29574,1.04263 -13.93504,1.91202 -18.10309,3.39248 -1.5273,0.54249 -5.17568,1.49873 -8.10751,2.125 -5.86803,1.25346 -8.2462,2.28625 -11.88175,5.15999 -5.28757,4.17959 -12.8163,6.95875 -22.50057,8.30596 -10.79305,1.50139 -14.74562,2.27439 -27.00708,5.28159 -17.94884,4.40208 -19.87821,4.71052 -27.84,4.45022 -14.08943,-0.46061 -22.11509,-5.21165 -29.280008,-17.3332 -4.84648,-8.19923 -6.91793,-10.56639 -12.73944,-14.55805 -13.59479,-9.32157 -11.82899,-16.81394 7.21944,-30.63254 10.92629,-7.92644 13.684078,-9.11327 30.000008,-12.91079 5.016,-1.16747 10.956,-2.81966 13.2,-3.67153 9.02853,-3.4274 8.87051,-3.39418 19.42343,-4.08431 7.2435,-0.47371 11.04604,-0.94217 13.45657,-1.65779 11.41052,-3.3875 24.61581,-6.02841 38.4,-7.67959 45.25244,-5.42067 56.16498,-13.04028 25.44,-17.7633 -7.57146,-1.16388 -8.66822,-1.03904 -21.36,2.43128 -6.2043,1.69646 -9.8095,1.91129 -20.64,1.22992 -10.10549,-0.63575 -11.9586,0.29369 -14.633,7.33922 -2.54589,6.70698 -4.75993,8.03369 -17.047,10.21493 -11.68217,2.07387 -22.92366,1.32798 -35.99634,-2.38842 -8.71283,-2.47694 -9.7238,-2.4843 -16.32366,-0.11886 -9.978168,3.57624 -12.373858,3.29714 -20.901628,-2.43497 -9.87267,-6.63612 -24.93319,-13.39078 -29.85673,-13.39078 -4.12662,0 -11.16166,3.74808 -11.16166,5.94663 0,0.61206 -2.91705,3.65337 -3.5041,3.65337 -0.18612,0 -1.09564,0.83817 -2.02116,1.86261 -6.20092,6.86368 -18.77795,3.56597 -22.24666,-5.83309 -3.8625097,-10.46611 -2.0999697,-17.48764 6.79105,-27.05391 18.99341,-20.43591 28.50077,-34.6049 30.16069,-44.94899 2.78906,-17.38055 11.6781,-17.66423 40.50019,-1.29249 12.187718,6.92296 28.395018,6.75562 48.960008,-0.5055 47.32692,-16.71027 80.30003,-37.60421 99.69527,-63.17353 9.7286,-12.8255 13.32015,-14.19347 24.15111,-9.19881 2.64351,1.21905 7.93551,3.11065 11.76001,4.20358 3.82449,1.09291 8.82423,2.62455 11.11054,3.40362 16.1279,5.49571 41.22292,-7.23108 59.65598,-30.25418 2.44216,-3.05029 6.18407,-7.4282 8.31535,-9.7287 6.45671,-6.96933 7.88556,-12.16478 8.74577,-31.80061 0.90328,-20.61868 3.34002,-24.37967 15.32519,-23.65362 14.35346,0.86951 16.46241,8.74728 12.75731,47.65362 -1.41098,14.8164 -3.35611,20.16275 -11.08934,30.48 -16.89228,22.53675 -16.91934,30.65765 -0.0747,22.40223 2.9741,-1.45758 8.21547,-3.76157 11.64747,-5.11998 19.06566,-7.54632 23.72437,-12.10428 64.05066,-62.66563 26.43516,-33.14456 28.88009,-36.48026 34.34099,-46.85245 5.64677,-10.72521 17.30616,-28.57381 23.93736,-36.64416 20.51343,-24.965208 28.3693,-32.555549 41.86527,-40.450061 3.76814,-2.204203 21.32879,-5.860128 28.18169,-5.867112 9.7945,-0.01 16.4874,11.788767 12.8639,22.677485 -1.477,4.438315 -8.3789,9.463127 -17.5624,12.786138 -5.1803,1.87443 -5.9753,2.29058 -12.45572,6.51987 -2.91595,1.90303 -6.51806,4.23577 -8.00467,5.18386 -8.80392,5.61481 -21.82613,17.79066 -25.7028,24.03236 -3.32554,5.35432 -8.74157,15.86654 -10.18661,19.77176 -0.58325,1.57613 -3.30739,6.86561 -6.05371,11.75442 -9.09764,16.1951 -9.28426,16.82953 -9.80981,33.35127 -0.44376,13.94923 -0.49728,13.784 3.08241,9.51567 6.70412,-7.99384 10.69522,-8.75805 19.49372,-3.73266 2.6243,1.4989 5.1731,3.29491 5.66404,3.99113 4.29874,6.0965 4.91405,12.71454 1.66085,17.86257 -1.09713,1.7362 -3.44582,6.0562 -5.21928,9.6 -4.69733,9.38658 -6.04454,11.24739 -19.43453,26.84329 -28.01019,32.62473 -46.17983,52.22901 -54.80724,59.13473 -8.23071,6.58817 -8.24817,10.12327 -0.0929,18.81541 5.94118,6.33233 10.97889,8.7019 27.23423,12.81009 27.89602,7.05013 35.82931,4.29044 49.06915,-17.0693 5.55528,-8.96224 8.42948,-10.85018 15.53703,-10.20569 14.5008,1.31488 13.3343,17.4151 -3.34685,46.19476 -1.53019,2.64 -3.58229,6.42 -4.56014,8.4 -1.51724,3.072 -2.30285,4.01468 -5.35666,6.42744 -11.30266,8.93 -10.58938,14.51125 2.40398,18.81076 2.95244,0.97697 7.20826,2.73161 9.4574,3.8992 4.05792,2.10661 4.14264,2.12656 11.04,2.60094 18.19411,1.25131 26.37961,10.94901 21.11601,25.01707 -3.9773,10.63041 -11.9013,14.74795 -28.40606,14.76065 -8.1948,0.006 -9.37963,3.27781 -3.93811,10.87349 8.88581,12.40352 17.02291,17.19773 38.22697,22.52261 20.2868,5.09452 22.7314,6.82862 23.2926,16.52208 0.7725,13.34472 -11.0888,20.40422 -38.3007,22.79534 -9.74465,0.85627 -15.84003,1.66901 -15.84003,2.11205 0,1.71096 8.50388,11.48409 16.74633,19.24584 10.8122,10.18176 15.5867,13.15392 26.2551,16.34424 18.7194,5.59785 25.6753,13.98115 20.4343,24.62721 -3.6288,7.37112 -9.8193,9.69917 -28.8757,10.85928 -39.96065,2.43264 -43.20804,8.39458 -16.4224,30.15005 39.3639,31.9716 40.7127,38.45775 10.1824,48.96533 -10.2989,3.54456 -15.182,3.15854 -35.47015,-2.80387 -8.95748,-2.63247 -9.63792,-2.49437 -8.91567,1.80931 1.74653,10.40707 12.20467,28.12646 27.21106,46.1041 8.76596,10.50172 8.34496,15.28166 -1.78526,20.26512 -12.94042,6.3659 -26.24842,4.81742 -44.40001,-5.16624 -11.25254,-6.18912 -12.68736,-5.60328 -12.68232,5.178 0.005,9.93772 0.67253,11.67988 8.50613,22.18747 9.85719,13.22193 23.37293,33.55925 26.72439,40.21253 8.5487,16.97088 7.02422,33.96201 -4.0682,45.34152 -4.84478,4.97016 -29.82288,19.87636 -57.48657,34.30632 -27.34846,14.26545 -27.90093,19.22467 -3.23682,29.05444 25.77527,10.27263 43.24093,33.27802 41.58824,54.77914 -1.27478,16.58429 -9.4163,32.06488 -23.83387,45.31858 -12.48693,11.4789 -12.5613,12.9982 -0.79046,16.1483 12.175,3.2583 18.22003,9.8155 26.45496,28.6969 6.606,15.1464 3.81969,13.6792 24.26452,12.7775 14.20244,-0.6264 28.88483,0.7501 32.37183,3.0348 4.5354,2.9717 8.0388,15.3628 8.9155,31.5326 0.2782,5.1315 0.6118,9.632 0.7415,10.0011 2.0903,5.9528 -3.2693,22.4673 -8.9917,27.7063 -4.2294,3.8721 -1.4084,3.5872 -30.90914,3.121 -15.43416,-0.244 -33.23482,-0.2364 -42.92799,0.018 -62.02953,1.6296 -380.92569,0.1151 -383.5566,-1.8215 z M 32.011572,15.366082 c 0,-0.132 0.432,-0.4712 0.96,-0.753777 0.528,-0.282577 0.96,-0.405776 0.96,-0.273776 0,0.132 -0.432,0.471199 -0.96,0.753776 -0.528,0.282577 -0.96,0.405777 -0.96,0.273777 z m 2.4,-1.44 c 0,-0.132 0.432,-0.4712 0.96,-0.753777 0.528,-0.282577 0.96,-0.405776 0.96,-0.273776 0,0.132 -0.432,0.471199 -0.96,0.753776 -0.528,0.282577 -0.96,0.405777 -0.96,0.273777 z M 614.49162,0.945729 c -2.4,-1.174225 -2.4,-1.174225 -0.2922,-1.073824 1.6991,0.08093 2.1847,0.309796 2.5045,1.1804 0.2182,0.594 0.3497,1.077221 0.2922,1.073824 -0.057,-0.0034 -1.1845,-0.534577 -2.5045,-1.1804 z" />
    </defs>

    <rect id="background" width="100%" height="100%" fill="#fe0000" />
    <polygon points="0,2000 3000,0 3000,2000" fill="black" />

    <use href="#dragon" fill="black" transform="translate(120 250) rotate(-13) scale(1.5)" />
</svg>